<svg width="171" height="42" viewBox="0 0 171 42" fill="none" xmlns="http://www.w3.org/2000/svg">
<g filter="url(#filter0_d_14_2656)">
<mask id="path-1-outside-1_14_2656" maskUnits="userSpaceOnUse" x="3.74902" y="-0.741058" width="166" height="35" fill="black">
<rect fill="white" x="3.74902" y="-0.741058" width="166" height="35"/>
<path d="M5.75879 2.11246C8.3291 2.22183 11.5625 2.27652 15.459 2.27652L23.3955 23.7687H23.498L31.7627 2.27652H34.1211C35.8164 2.27652 38.209 2.22183 41.2988 2.11246C41.3535 2.33121 41.3809 2.4816 41.3809 2.56363C41.3809 2.65933 41.3535 2.83023 41.2988 3.07632C40.8066 3.11734 40.4102 3.15836 40.1094 3.19937C39.8086 3.24039 39.4053 3.30875 38.8994 3.40445C38.4072 3.50015 38.0107 3.61636 37.71 3.75308C37.4092 3.87613 37.1426 4.05386 36.9102 4.28629C36.6777 4.50504 36.5547 4.75797 36.541 5.04507C36.4043 8.25797 36.3359 12.0793 36.3359 16.5089C36.3359 21.007 36.4248 25.3205 36.6025 29.4494C36.6162 29.8048 36.7734 30.1125 37.0742 30.3722C37.375 30.6183 37.8057 30.8097 38.3662 30.9464C38.9404 31.0832 39.4189 31.1857 39.8018 31.2541C40.1982 31.3087 40.7109 31.3634 41.3398 31.4181C41.3945 31.6369 41.4219 31.8214 41.4219 31.9718C41.4219 32.0812 41.3945 32.2179 41.3398 32.382C39.0293 32.3 36.6504 32.2589 34.2031 32.2589C31.7422 32.2589 29.3633 32.3 27.0664 32.382C27.0117 32.2179 26.9844 32.0812 26.9844 31.9718C26.9844 31.7394 27.0117 31.5548 27.0664 31.4181C27.6953 31.3634 28.2012 31.3087 28.584 31.2541C28.9805 31.1857 29.459 31.0832 30.0195 30.9464C30.5938 30.8097 31.0312 30.6183 31.332 30.3722C31.6328 30.1125 31.79 29.8048 31.8037 29.4494C31.9404 25.1837 32.0088 21.3761 32.0088 18.0265C32.0088 14.8136 31.9404 11.1564 31.8037 7.05484H31.6396L22.2676 31.7462H22.0625L12.0752 6.56265H11.8496C11.7402 9.88492 11.6855 13.7062 11.6855 18.0265C11.6855 21.1984 11.7539 24.9035 11.8906 29.1418C11.918 30.3859 13.4287 31.1447 16.4229 31.4181C16.4912 31.6505 16.5254 31.8351 16.5254 31.9718C16.5254 32.1086 16.4912 32.2453 16.4229 32.382C14.249 32.3 12.3076 32.2589 10.5986 32.2589C9.50488 32.2589 7.67285 32.3 5.10254 32.382C5.03418 32.2453 5 32.1086 5 31.9718C5 31.7394 5.03418 31.5548 5.10254 31.4181C8.12402 31.131 9.63477 30.3722 9.63477 29.1418C9.79883 24.8761 9.88086 20.6652 9.88086 16.5089C9.88086 13.5148 9.83984 10.3361 9.75781 6.97281C9.74414 6.39859 9.70996 5.92007 9.65527 5.53726C9.60059 5.14078 9.49805 4.79898 9.34766 4.51187C9.19727 4.22476 9.04004 3.99918 8.87598 3.83511C8.71191 3.67105 8.45898 3.5275 8.11719 3.40445C7.77539 3.26773 7.44043 3.17203 7.1123 3.11734C6.79785 3.04898 6.34668 2.97379 5.75879 2.89175C5.7041 2.78238 5.67676 2.65933 5.67676 2.52261C5.67676 2.35855 5.7041 2.22183 5.75879 2.11246ZM44.4775 15.381C47.1299 15.1076 49.4404 14.547 51.4092 13.6994C51.751 13.8361 51.9902 14.0138 52.127 14.2326C52.127 21.3283 52.1816 26.4005 52.291 29.4494C52.3047 29.8048 52.4072 30.1125 52.5986 30.3722C52.8037 30.6183 53.0908 30.8097 53.46 30.9464C53.8291 31.0832 54.1367 31.1857 54.3828 31.2541C54.6289 31.3087 54.9502 31.3634 55.3467 31.4181C55.4287 31.5822 55.4697 31.7531 55.4697 31.9308C55.4697 32.1086 55.4287 32.2589 55.3467 32.382C53.542 32.3 51.792 32.2589 50.0967 32.2589C48.4287 32.2589 46.6924 32.3 44.8877 32.382C44.833 32.1632 44.8057 32.0128 44.8057 31.9308C44.8057 31.8625 44.833 31.6916 44.8877 31.4181C45.3389 31.3634 45.708 31.3087 45.9951 31.2541C46.2822 31.1857 46.6377 31.0832 47.0615 30.9464C47.4854 30.8097 47.8066 30.6183 48.0254 30.3722C48.2441 30.1125 48.3604 29.8048 48.374 29.4494C48.4287 28.0959 48.4561 26.4552 48.4561 24.5275C48.4561 23.8849 48.4492 22.7912 48.4355 21.2462C48.4219 19.7013 48.415 18.3478 48.415 17.1857C47.6357 16.7072 46.3232 16.4269 44.4775 16.3449C44.4229 16.1261 44.3955 15.9552 44.3955 15.8322C44.3955 15.7502 44.4229 15.5998 44.4775 15.381ZM47.6973 6.80875C47.6973 6.11148 47.9434 5.51675 48.4355 5.02457C48.9414 4.53238 49.5361 4.28629 50.2197 4.28629C50.917 4.28629 51.5117 4.53238 52.0039 5.02457C52.4961 5.51675 52.7422 6.11148 52.7422 6.80875C52.7422 7.49234 52.4961 8.08707 52.0039 8.59293C51.5117 9.08511 50.917 9.33121 50.2197 9.33121C49.5361 9.33121 48.9414 9.08511 48.4355 8.59293C47.9434 8.08707 47.6973 7.49234 47.6973 6.80875ZM69.1689 31.4181C69.251 31.5822 69.292 31.7531 69.292 31.9308C69.292 32.0675 69.251 32.2179 69.1689 32.382C67.3643 32.3 65.6143 32.2589 63.9189 32.2589C62.251 32.2589 60.5146 32.3 58.71 32.382C58.6553 32.1632 58.6279 32.0128 58.6279 31.9308C58.6279 31.8625 58.6553 31.6916 58.71 31.4181C59.1611 31.3634 59.5303 31.3087 59.8174 31.2541C60.1045 31.1857 60.46 31.0832 60.8838 30.9464C61.3076 30.8097 61.6289 30.6183 61.8477 30.3722C62.0664 30.1125 62.1826 29.8048 62.1963 29.4494C62.251 28.0959 62.2783 26.4552 62.2783 24.5275C62.2783 23.8849 62.2715 22.7912 62.2578 21.2462C62.2441 19.7013 62.2373 18.3478 62.2373 17.1857C61.458 16.7072 60.1455 16.4269 58.2998 16.3449C58.2451 16.1261 58.2178 15.9552 58.2178 15.8322C58.2178 15.7502 58.2451 15.5998 58.2998 15.381C60.9521 15.1076 63.2627 14.547 65.2314 13.6994C65.5732 13.8361 65.8125 14.0138 65.9492 14.2326V17.4728C67.2754 16.3107 68.5469 15.381 69.7637 14.6837C70.9805 13.9728 72.2109 13.6173 73.4551 13.6173C75.0137 13.6173 76.1143 14.0548 76.7568 14.9298C77.4131 15.8048 77.7549 17.172 77.7822 19.0314L77.9873 29.4494C78.001 29.8048 78.1035 30.1125 78.2949 30.3722C78.5 30.6183 78.7871 30.8097 79.1562 30.9464C79.5391 31.0832 79.8535 31.1857 80.0996 31.2541C80.3457 31.3087 80.667 31.3634 81.0635 31.4181C81.1182 31.6916 81.1455 31.8761 81.1455 31.9718C81.1455 32.0812 81.1182 32.2179 81.0635 32.382C79.2998 32.3 77.6729 32.2589 76.1826 32.2589C74.7334 32.2589 73.127 32.3 71.3633 32.382C71.3086 32.1632 71.2812 31.9992 71.2812 31.8898C71.2812 31.7941 71.3086 31.6369 71.3633 31.4181C71.7188 31.3634 72.0127 31.3087 72.2451 31.2541C72.4912 31.1857 72.7646 31.0832 73.0654 30.9464C73.3799 30.8097 73.6123 30.6183 73.7627 30.3722C73.9268 30.1125 74.0088 29.8048 74.0088 29.4494L74.0498 19.7082C74.0498 17.2336 73.3047 15.9962 71.8145 15.9962C70.4199 15.9962 68.4648 16.9259 65.9492 18.7853C65.9492 22.7638 66.0039 26.3185 66.1133 29.4494C66.127 29.8048 66.2295 30.1125 66.4209 30.3722C66.626 30.6183 66.9131 30.8097 67.2822 30.9464C67.6514 31.0832 67.959 31.1857 68.2051 31.2541C68.4512 31.3087 68.7725 31.3634 69.1689 31.4181ZM94.2295 2.76871C96.8135 2.52261 99.124 1.96207 101.161 1.08707C101.517 1.23746 101.749 1.42203 101.858 1.64078C101.858 17.131 101.92 26.4005 102.043 29.4494C102.057 29.8048 102.159 30.1125 102.351 30.3722C102.556 30.6183 102.843 30.8097 103.212 30.9464C103.581 31.0832 103.889 31.1857 104.135 31.2541C104.381 31.3087 104.702 31.3634 105.099 31.4181C105.153 31.6369 105.181 31.8078 105.181 31.9308C105.181 32.0128 105.153 32.1632 105.099 32.382C104.62 32.3546 104.128 32.3273 103.622 32.3C103.13 32.2726 102.74 32.2521 102.453 32.2384C102.166 32.2248 101.899 32.2179 101.653 32.2179C101.448 32.2179 101.216 32.2248 100.956 32.2384C100.696 32.2521 100.341 32.2726 99.8896 32.3C99.4385 32.3273 98.9941 32.3546 98.5566 32.382C98.4883 32.3546 98.4268 32.3205 98.3721 32.2794C98.3311 32.2521 98.2969 32.2316 98.2695 32.2179C98.2559 32.1906 98.2354 32.1564 98.208 32.1154C98.1807 32.0607 98.1602 32.0265 98.1465 32.0128C98.1328 31.9992 98.1123 31.9582 98.085 31.8898C98.0713 31.8078 98.0576 31.7599 98.0439 31.7462C98.0986 31.4181 98.126 30.6798 98.126 29.5314C95.8701 31.7462 93.7852 32.8537 91.8711 32.8537C89.7656 32.8537 88.0498 32.0607 86.7236 30.4748C85.3975 28.8888 84.7344 26.7287 84.7344 23.9943C84.7344 23.0509 84.8438 22.1076 85.0625 21.1642C85.2812 20.2209 85.6436 19.2912 86.1494 18.3752C86.6553 17.4591 87.2773 16.6525 88.0156 15.9552C88.7539 15.258 89.6904 14.6974 90.8252 14.2736C91.96 13.8361 93.2178 13.6173 94.5986 13.6173C95.624 13.6173 96.8271 13.8361 98.208 14.2736C98.1807 11.6759 98.167 8.44254 98.167 4.57339C97.3877 4.12222 96.0752 3.84195 94.2295 3.73257C94.1748 3.51382 94.1475 3.34976 94.1475 3.24039C94.1475 3.14468 94.1748 2.98746 94.2295 2.76871ZM93.8398 30.1671C95.207 30.1671 96.6494 29.4357 98.167 27.9728C98.1943 26.633 98.208 24.0968 98.208 20.3644V17.3908C97.2646 15.7638 95.8223 14.9503 93.8809 14.9503C93.4707 14.9503 93.0605 15.0119 92.6504 15.1349C92.2402 15.258 91.8027 15.5041 91.3379 15.8732C90.873 16.2423 90.4629 16.714 90.1074 17.2882C89.7656 17.8625 89.4785 18.6623 89.2461 19.6877C89.0137 20.6994 88.8975 21.8683 88.8975 23.1945C88.8975 25.2179 89.3145 26.8859 90.1484 28.1984C90.9961 29.5109 92.2266 30.1671 93.8398 30.1671ZM117.998 13.6173C119.352 13.6173 120.568 13.8566 121.648 14.3351C122.742 14.8136 123.672 15.4767 124.438 16.3244C125.203 17.172 125.791 18.1906 126.201 19.38C126.611 20.5558 126.816 21.841 126.816 23.2355C126.816 26.0793 126.017 28.3898 124.417 30.1671C122.831 31.9582 120.691 32.8537 117.998 32.8537C116.658 32.8537 115.441 32.6212 114.348 32.1564C113.268 31.6779 112.345 31.0148 111.579 30.1671C110.813 29.3058 110.219 28.2873 109.795 27.1115C109.385 25.9357 109.18 24.6437 109.18 23.2355C109.18 21.841 109.385 20.5558 109.795 19.38C110.205 18.1906 110.786 17.172 111.538 16.3244C112.304 15.4767 113.233 14.8136 114.327 14.3351C115.421 13.8566 116.645 13.6173 117.998 13.6173ZM117.998 14.9503C116.604 14.9503 115.489 15.6271 114.655 16.9806C113.835 18.3341 113.425 20.4191 113.425 23.2355C113.425 26.0519 113.835 28.1369 114.655 29.4904C115.489 30.8302 116.604 31.5002 117.998 31.5002C119.393 31.5002 120.5 30.8234 121.32 29.4699C122.154 28.1164 122.571 26.0382 122.571 23.2355C122.571 21.8273 122.462 20.6037 122.243 19.5646C122.024 18.5255 121.717 17.6642 121.32 16.9806C120.924 16.297 120.445 15.7912 119.885 15.463C119.324 15.1212 118.695 14.9503 117.998 14.9503ZM130.897 15.381C133.55 15.1076 135.86 14.547 137.829 13.6994C138.171 13.8361 138.41 14.0138 138.547 14.2326V17.7599C139.053 16.8029 139.805 15.8732 140.803 14.9709C141.814 14.0685 142.867 13.6173 143.961 13.6173C144.781 13.6173 145.444 13.8634 145.95 14.3556C146.47 14.8341 146.729 15.4972 146.729 16.3449C146.729 17.1515 146.49 17.7804 146.012 18.2316C145.533 18.6828 144.932 18.9084 144.207 18.9084C143.537 18.9084 142.983 18.6964 142.546 18.2726C142.122 17.8351 141.89 17.2609 141.849 16.55C141.274 16.7961 140.618 17.3429 139.88 18.1906C139.155 19.0382 138.711 19.8791 138.547 20.713C138.547 23.7619 138.602 26.674 138.711 29.4494C138.725 29.8048 138.854 30.1125 139.101 30.3722C139.347 30.6183 139.709 30.8097 140.188 30.9464C140.666 31.0832 141.062 31.1857 141.377 31.2541C141.691 31.3087 142.102 31.3634 142.607 31.4181C142.689 31.5822 142.73 31.7531 142.73 31.9308C142.73 32.0675 142.689 32.2179 142.607 32.382C140.557 32.3 138.526 32.2589 136.517 32.2589C134.849 32.2589 133.112 32.3 131.308 32.382C131.253 32.1632 131.226 32.0128 131.226 31.9308C131.226 31.8625 131.253 31.6916 131.308 31.4181C131.759 31.3634 132.128 31.3087 132.415 31.2541C132.702 31.1857 133.058 31.0832 133.481 30.9464C133.905 30.8097 134.227 30.6183 134.445 30.3722C134.664 30.1125 134.78 29.8048 134.794 29.4494C134.849 28.0959 134.876 26.4552 134.876 24.5275C134.876 23.8849 134.869 22.7912 134.855 21.2462C134.842 19.7013 134.835 18.3478 134.835 17.1857C134.056 16.7072 132.743 16.4269 130.897 16.3449C130.843 16.1261 130.815 15.9552 130.815 15.8322C130.815 15.7502 130.843 15.5998 130.897 15.381ZM151.282 18.7853C151.282 17.2814 151.966 16.0441 153.333 15.0734C154.714 14.1027 156.341 13.6173 158.214 13.6173C160.511 13.6173 162.124 14.0753 163.054 14.9914C163.997 15.9074 164.469 17.4523 164.469 19.6261V28.1369C164.469 28.9025 164.749 29.2853 165.31 29.2853C165.761 29.2853 166.335 28.7384 167.032 27.6447C167.524 27.6857 167.859 27.9044 168.037 28.3009C167.941 28.4377 167.777 28.6837 167.545 29.0392C167.312 29.3947 167.142 29.6476 167.032 29.798C166.923 29.9484 166.752 30.1808 166.52 30.4953C166.287 30.7961 166.096 31.0216 165.945 31.172C165.809 31.3224 165.617 31.5002 165.371 31.7052C165.139 31.9103 164.92 32.0675 164.715 32.1769C164.523 32.2726 164.298 32.3546 164.038 32.423C163.778 32.505 163.519 32.5461 163.259 32.5461C162.575 32.5461 162.008 32.3 161.557 31.8078C161.119 31.3156 160.859 30.5568 160.777 29.5314C160.764 29.5451 160.552 29.7433 160.142 30.1261C159.731 30.5089 159.444 30.7687 159.28 30.9054C159.13 31.0285 158.836 31.2541 158.398 31.5822C157.975 31.8966 157.612 32.1222 157.312 32.2589C157.011 32.3957 156.635 32.5255 156.184 32.6486C155.732 32.7853 155.288 32.8537 154.851 32.8537C154.153 32.8537 153.531 32.758 152.984 32.5666C152.451 32.3752 152.034 32.1427 151.733 31.8693C151.433 31.5959 151.187 31.2814 150.995 30.9259C150.804 30.5568 150.674 30.2218 150.605 29.9211C150.551 29.6203 150.523 29.3195 150.523 29.0187C150.523 28.1027 150.674 27.3302 150.975 26.7013C151.289 26.0724 151.863 25.4845 152.697 24.9377C153.545 24.3908 154.584 23.9054 155.814 23.4816C157.045 23.0578 158.699 22.5793 160.777 22.0461V19.1955C160.777 17.8146 160.47 16.7824 159.854 16.0988C159.253 15.4152 158.439 15.0734 157.414 15.0734C156.498 15.0734 155.726 15.258 155.097 15.6271C154.481 15.9826 154.105 16.3996 153.969 16.8781C155.309 17.0832 155.979 17.8146 155.979 19.0724C155.979 19.6466 155.773 20.1525 155.363 20.59C154.953 21.0275 154.379 21.2462 153.641 21.2462C153.025 21.2462 152.479 21.0343 152 20.6105C151.521 20.173 151.282 19.5646 151.282 18.7853ZM160.777 27.6447V23.3586C159.52 23.6457 158.48 23.9601 157.66 24.3019C156.84 24.63 156.211 24.9923 155.773 25.3888C155.35 25.7853 155.056 26.1955 154.892 26.6193C154.728 27.0294 154.646 27.508 154.646 28.0548C154.646 28.7384 154.844 29.2785 155.24 29.675C155.65 30.0578 156.149 30.2492 156.737 30.2492C158.104 30.2492 159.451 29.381 160.777 27.6447Z"/>
</mask>
<path d="M5.75879 2.11246C8.3291 2.22183 11.5625 2.27652 15.459 2.27652L23.3955 23.7687H23.498L31.7627 2.27652H34.1211C35.8164 2.27652 38.209 2.22183 41.2988 2.11246C41.3535 2.33121 41.3809 2.4816 41.3809 2.56363C41.3809 2.65933 41.3535 2.83023 41.2988 3.07632C40.8066 3.11734 40.4102 3.15836 40.1094 3.19937C39.8086 3.24039 39.4053 3.30875 38.8994 3.40445C38.4072 3.50015 38.0107 3.61636 37.71 3.75308C37.4092 3.87613 37.1426 4.05386 36.9102 4.28629C36.6777 4.50504 36.5547 4.75797 36.541 5.04507C36.4043 8.25797 36.3359 12.0793 36.3359 16.5089C36.3359 21.007 36.4248 25.3205 36.6025 29.4494C36.6162 29.8048 36.7734 30.1125 37.0742 30.3722C37.375 30.6183 37.8057 30.8097 38.3662 30.9464C38.9404 31.0832 39.4189 31.1857 39.8018 31.2541C40.1982 31.3087 40.7109 31.3634 41.3398 31.4181C41.3945 31.6369 41.4219 31.8214 41.4219 31.9718C41.4219 32.0812 41.3945 32.2179 41.3398 32.382C39.0293 32.3 36.6504 32.2589 34.2031 32.2589C31.7422 32.2589 29.3633 32.3 27.0664 32.382C27.0117 32.2179 26.9844 32.0812 26.9844 31.9718C26.9844 31.7394 27.0117 31.5548 27.0664 31.4181C27.6953 31.3634 28.2012 31.3087 28.584 31.2541C28.9805 31.1857 29.459 31.0832 30.0195 30.9464C30.5938 30.8097 31.0312 30.6183 31.332 30.3722C31.6328 30.1125 31.79 29.8048 31.8037 29.4494C31.9404 25.1837 32.0088 21.3761 32.0088 18.0265C32.0088 14.8136 31.9404 11.1564 31.8037 7.05484H31.6396L22.2676 31.7462H22.0625L12.0752 6.56265H11.8496C11.7402 9.88492 11.6855 13.7062 11.6855 18.0265C11.6855 21.1984 11.7539 24.9035 11.8906 29.1418C11.918 30.3859 13.4287 31.1447 16.4229 31.4181C16.4912 31.6505 16.5254 31.8351 16.5254 31.9718C16.5254 32.1086 16.4912 32.2453 16.4229 32.382C14.249 32.3 12.3076 32.2589 10.5986 32.2589C9.50488 32.2589 7.67285 32.3 5.10254 32.382C5.03418 32.2453 5 32.1086 5 31.9718C5 31.7394 5.03418 31.5548 5.10254 31.4181C8.12402 31.131 9.63477 30.3722 9.63477 29.1418C9.79883 24.8761 9.88086 20.6652 9.88086 16.5089C9.88086 13.5148 9.83984 10.3361 9.75781 6.97281C9.74414 6.39859 9.70996 5.92007 9.65527 5.53726C9.60059 5.14078 9.49805 4.79898 9.34766 4.51187C9.19727 4.22476 9.04004 3.99918 8.87598 3.83511C8.71191 3.67105 8.45898 3.5275 8.11719 3.40445C7.77539 3.26773 7.44043 3.17203 7.1123 3.11734C6.79785 3.04898 6.34668 2.97379 5.75879 2.89175C5.7041 2.78238 5.67676 2.65933 5.67676 2.52261C5.67676 2.35855 5.7041 2.22183 5.75879 2.11246ZM44.4775 15.381C47.1299 15.1076 49.4404 14.547 51.4092 13.6994C51.751 13.8361 51.9902 14.0138 52.127 14.2326C52.127 21.3283 52.1816 26.4005 52.291 29.4494C52.3047 29.8048 52.4072 30.1125 52.5986 30.3722C52.8037 30.6183 53.0908 30.8097 53.46 30.9464C53.8291 31.0832 54.1367 31.1857 54.3828 31.2541C54.6289 31.3087 54.9502 31.3634 55.3467 31.4181C55.4287 31.5822 55.4697 31.7531 55.4697 31.9308C55.4697 32.1086 55.4287 32.2589 55.3467 32.382C53.542 32.3 51.792 32.2589 50.0967 32.2589C48.4287 32.2589 46.6924 32.3 44.8877 32.382C44.833 32.1632 44.8057 32.0128 44.8057 31.9308C44.8057 31.8625 44.833 31.6916 44.8877 31.4181C45.3389 31.3634 45.708 31.3087 45.9951 31.2541C46.2822 31.1857 46.6377 31.0832 47.0615 30.9464C47.4854 30.8097 47.8066 30.6183 48.0254 30.3722C48.2441 30.1125 48.3604 29.8048 48.374 29.4494C48.4287 28.0959 48.4561 26.4552 48.4561 24.5275C48.4561 23.8849 48.4492 22.7912 48.4355 21.2462C48.4219 19.7013 48.415 18.3478 48.415 17.1857C47.6357 16.7072 46.3232 16.4269 44.4775 16.3449C44.4229 16.1261 44.3955 15.9552 44.3955 15.8322C44.3955 15.7502 44.4229 15.5998 44.4775 15.381ZM47.6973 6.80875C47.6973 6.11148 47.9434 5.51675 48.4355 5.02457C48.9414 4.53238 49.5361 4.28629 50.2197 4.28629C50.917 4.28629 51.5117 4.53238 52.0039 5.02457C52.4961 5.51675 52.7422 6.11148 52.7422 6.80875C52.7422 7.49234 52.4961 8.08707 52.0039 8.59293C51.5117 9.08511 50.917 9.33121 50.2197 9.33121C49.5361 9.33121 48.9414 9.08511 48.4355 8.59293C47.9434 8.08707 47.6973 7.49234 47.6973 6.80875ZM69.1689 31.4181C69.251 31.5822 69.292 31.7531 69.292 31.9308C69.292 32.0675 69.251 32.2179 69.1689 32.382C67.3643 32.3 65.6143 32.2589 63.9189 32.2589C62.251 32.2589 60.5146 32.3 58.71 32.382C58.6553 32.1632 58.6279 32.0128 58.6279 31.9308C58.6279 31.8625 58.6553 31.6916 58.71 31.4181C59.1611 31.3634 59.5303 31.3087 59.8174 31.2541C60.1045 31.1857 60.46 31.0832 60.8838 30.9464C61.3076 30.8097 61.6289 30.6183 61.8477 30.3722C62.0664 30.1125 62.1826 29.8048 62.1963 29.4494C62.251 28.0959 62.2783 26.4552 62.2783 24.5275C62.2783 23.8849 62.2715 22.7912 62.2578 21.2462C62.2441 19.7013 62.2373 18.3478 62.2373 17.1857C61.458 16.7072 60.1455 16.4269 58.2998 16.3449C58.2451 16.1261 58.2178 15.9552 58.2178 15.8322C58.2178 15.7502 58.2451 15.5998 58.2998 15.381C60.9521 15.1076 63.2627 14.547 65.2314 13.6994C65.5732 13.8361 65.8125 14.0138 65.9492 14.2326V17.4728C67.2754 16.3107 68.5469 15.381 69.7637 14.6837C70.9805 13.9728 72.2109 13.6173 73.4551 13.6173C75.0137 13.6173 76.1143 14.0548 76.7568 14.9298C77.4131 15.8048 77.7549 17.172 77.7822 19.0314L77.9873 29.4494C78.001 29.8048 78.1035 30.1125 78.2949 30.3722C78.5 30.6183 78.7871 30.8097 79.1562 30.9464C79.5391 31.0832 79.8535 31.1857 80.0996 31.2541C80.3457 31.3087 80.667 31.3634 81.0635 31.4181C81.1182 31.6916 81.1455 31.8761 81.1455 31.9718C81.1455 32.0812 81.1182 32.2179 81.0635 32.382C79.2998 32.3 77.6729 32.2589 76.1826 32.2589C74.7334 32.2589 73.127 32.3 71.3633 32.382C71.3086 32.1632 71.2812 31.9992 71.2812 31.8898C71.2812 31.7941 71.3086 31.6369 71.3633 31.4181C71.7188 31.3634 72.0127 31.3087 72.2451 31.2541C72.4912 31.1857 72.7646 31.0832 73.0654 30.9464C73.3799 30.8097 73.6123 30.6183 73.7627 30.3722C73.9268 30.1125 74.0088 29.8048 74.0088 29.4494L74.0498 19.7082C74.0498 17.2336 73.3047 15.9962 71.8145 15.9962C70.4199 15.9962 68.4648 16.9259 65.9492 18.7853C65.9492 22.7638 66.0039 26.3185 66.1133 29.4494C66.127 29.8048 66.2295 30.1125 66.4209 30.3722C66.626 30.6183 66.9131 30.8097 67.2822 30.9464C67.6514 31.0832 67.959 31.1857 68.2051 31.2541C68.4512 31.3087 68.7725 31.3634 69.1689 31.4181ZM94.2295 2.76871C96.8135 2.52261 99.124 1.96207 101.161 1.08707C101.517 1.23746 101.749 1.42203 101.858 1.64078C101.858 17.131 101.92 26.4005 102.043 29.4494C102.057 29.8048 102.159 30.1125 102.351 30.3722C102.556 30.6183 102.843 30.8097 103.212 30.9464C103.581 31.0832 103.889 31.1857 104.135 31.2541C104.381 31.3087 104.702 31.3634 105.099 31.4181C105.153 31.6369 105.181 31.8078 105.181 31.9308C105.181 32.0128 105.153 32.1632 105.099 32.382C104.62 32.3546 104.128 32.3273 103.622 32.3C103.13 32.2726 102.74 32.2521 102.453 32.2384C102.166 32.2248 101.899 32.2179 101.653 32.2179C101.448 32.2179 101.216 32.2248 100.956 32.2384C100.696 32.2521 100.341 32.2726 99.8896 32.3C99.4385 32.3273 98.9941 32.3546 98.5566 32.382C98.4883 32.3546 98.4268 32.3205 98.3721 32.2794C98.3311 32.2521 98.2969 32.2316 98.2695 32.2179C98.2559 32.1906 98.2354 32.1564 98.208 32.1154C98.1807 32.0607 98.1602 32.0265 98.1465 32.0128C98.1328 31.9992 98.1123 31.9582 98.085 31.8898C98.0713 31.8078 98.0576 31.7599 98.0439 31.7462C98.0986 31.4181 98.126 30.6798 98.126 29.5314C95.8701 31.7462 93.7852 32.8537 91.8711 32.8537C89.7656 32.8537 88.0498 32.0607 86.7236 30.4748C85.3975 28.8888 84.7344 26.7287 84.7344 23.9943C84.7344 23.0509 84.8438 22.1076 85.0625 21.1642C85.2812 20.2209 85.6436 19.2912 86.1494 18.3752C86.6553 17.4591 87.2773 16.6525 88.0156 15.9552C88.7539 15.258 89.6904 14.6974 90.8252 14.2736C91.96 13.8361 93.2178 13.6173 94.5986 13.6173C95.624 13.6173 96.8271 13.8361 98.208 14.2736C98.1807 11.6759 98.167 8.44254 98.167 4.57339C97.3877 4.12222 96.0752 3.84195 94.2295 3.73257C94.1748 3.51382 94.1475 3.34976 94.1475 3.24039C94.1475 3.14468 94.1748 2.98746 94.2295 2.76871ZM93.8398 30.1671C95.207 30.1671 96.6494 29.4357 98.167 27.9728C98.1943 26.633 98.208 24.0968 98.208 20.3644V17.3908C97.2646 15.7638 95.8223 14.9503 93.8809 14.9503C93.4707 14.9503 93.0605 15.0119 92.6504 15.1349C92.2402 15.258 91.8027 15.5041 91.3379 15.8732C90.873 16.2423 90.4629 16.714 90.1074 17.2882C89.7656 17.8625 89.4785 18.6623 89.2461 19.6877C89.0137 20.6994 88.8975 21.8683 88.8975 23.1945C88.8975 25.2179 89.3145 26.8859 90.1484 28.1984C90.9961 29.5109 92.2266 30.1671 93.8398 30.1671ZM117.998 13.6173C119.352 13.6173 120.568 13.8566 121.648 14.3351C122.742 14.8136 123.672 15.4767 124.438 16.3244C125.203 17.172 125.791 18.1906 126.201 19.38C126.611 20.5558 126.816 21.841 126.816 23.2355C126.816 26.0793 126.017 28.3898 124.417 30.1671C122.831 31.9582 120.691 32.8537 117.998 32.8537C116.658 32.8537 115.441 32.6212 114.348 32.1564C113.268 31.6779 112.345 31.0148 111.579 30.1671C110.813 29.3058 110.219 28.2873 109.795 27.1115C109.385 25.9357 109.18 24.6437 109.18 23.2355C109.18 21.841 109.385 20.5558 109.795 19.38C110.205 18.1906 110.786 17.172 111.538 16.3244C112.304 15.4767 113.233 14.8136 114.327 14.3351C115.421 13.8566 116.645 13.6173 117.998 13.6173ZM117.998 14.9503C116.604 14.9503 115.489 15.6271 114.655 16.9806C113.835 18.3341 113.425 20.4191 113.425 23.2355C113.425 26.0519 113.835 28.1369 114.655 29.4904C115.489 30.8302 116.604 31.5002 117.998 31.5002C119.393 31.5002 120.5 30.8234 121.32 29.4699C122.154 28.1164 122.571 26.0382 122.571 23.2355C122.571 21.8273 122.462 20.6037 122.243 19.5646C122.024 18.5255 121.717 17.6642 121.32 16.9806C120.924 16.297 120.445 15.7912 119.885 15.463C119.324 15.1212 118.695 14.9503 117.998 14.9503ZM130.897 15.381C133.55 15.1076 135.86 14.547 137.829 13.6994C138.171 13.8361 138.41 14.0138 138.547 14.2326V17.7599C139.053 16.8029 139.805 15.8732 140.803 14.9709C141.814 14.0685 142.867 13.6173 143.961 13.6173C144.781 13.6173 145.444 13.8634 145.95 14.3556C146.47 14.8341 146.729 15.4972 146.729 16.3449C146.729 17.1515 146.49 17.7804 146.012 18.2316C145.533 18.6828 144.932 18.9084 144.207 18.9084C143.537 18.9084 142.983 18.6964 142.546 18.2726C142.122 17.8351 141.89 17.2609 141.849 16.55C141.274 16.7961 140.618 17.3429 139.88 18.1906C139.155 19.0382 138.711 19.8791 138.547 20.713C138.547 23.7619 138.602 26.674 138.711 29.4494C138.725 29.8048 138.854 30.1125 139.101 30.3722C139.347 30.6183 139.709 30.8097 140.188 30.9464C140.666 31.0832 141.062 31.1857 141.377 31.2541C141.691 31.3087 142.102 31.3634 142.607 31.4181C142.689 31.5822 142.73 31.7531 142.73 31.9308C142.73 32.0675 142.689 32.2179 142.607 32.382C140.557 32.3 138.526 32.2589 136.517 32.2589C134.849 32.2589 133.112 32.3 131.308 32.382C131.253 32.1632 131.226 32.0128 131.226 31.9308C131.226 31.8625 131.253 31.6916 131.308 31.4181C131.759 31.3634 132.128 31.3087 132.415 31.2541C132.702 31.1857 133.058 31.0832 133.481 30.9464C133.905 30.8097 134.227 30.6183 134.445 30.3722C134.664 30.1125 134.78 29.8048 134.794 29.4494C134.849 28.0959 134.876 26.4552 134.876 24.5275C134.876 23.8849 134.869 22.7912 134.855 21.2462C134.842 19.7013 134.835 18.3478 134.835 17.1857C134.056 16.7072 132.743 16.4269 130.897 16.3449C130.843 16.1261 130.815 15.9552 130.815 15.8322C130.815 15.7502 130.843 15.5998 130.897 15.381ZM151.282 18.7853C151.282 17.2814 151.966 16.0441 153.333 15.0734C154.714 14.1027 156.341 13.6173 158.214 13.6173C160.511 13.6173 162.124 14.0753 163.054 14.9914C163.997 15.9074 164.469 17.4523 164.469 19.6261V28.1369C164.469 28.9025 164.749 29.2853 165.31 29.2853C165.761 29.2853 166.335 28.7384 167.032 27.6447C167.524 27.6857 167.859 27.9044 168.037 28.3009C167.941 28.4377 167.777 28.6837 167.545 29.0392C167.312 29.3947 167.142 29.6476 167.032 29.798C166.923 29.9484 166.752 30.1808 166.52 30.4953C166.287 30.7961 166.096 31.0216 165.945 31.172C165.809 31.3224 165.617 31.5002 165.371 31.7052C165.139 31.9103 164.92 32.0675 164.715 32.1769C164.523 32.2726 164.298 32.3546 164.038 32.423C163.778 32.505 163.519 32.5461 163.259 32.5461C162.575 32.5461 162.008 32.3 161.557 31.8078C161.119 31.3156 160.859 30.5568 160.777 29.5314C160.764 29.5451 160.552 29.7433 160.142 30.1261C159.731 30.5089 159.444 30.7687 159.28 30.9054C159.13 31.0285 158.836 31.2541 158.398 31.5822C157.975 31.8966 157.612 32.1222 157.312 32.2589C157.011 32.3957 156.635 32.5255 156.184 32.6486C155.732 32.7853 155.288 32.8537 154.851 32.8537C154.153 32.8537 153.531 32.758 152.984 32.5666C152.451 32.3752 152.034 32.1427 151.733 31.8693C151.433 31.5959 151.187 31.2814 150.995 30.9259C150.804 30.5568 150.674 30.2218 150.605 29.9211C150.551 29.6203 150.523 29.3195 150.523 29.0187C150.523 28.1027 150.674 27.3302 150.975 26.7013C151.289 26.0724 151.863 25.4845 152.697 24.9377C153.545 24.3908 154.584 23.9054 155.814 23.4816C157.045 23.0578 158.699 22.5793 160.777 22.0461V19.1955C160.777 17.8146 160.47 16.7824 159.854 16.0988C159.253 15.4152 158.439 15.0734 157.414 15.0734C156.498 15.0734 155.726 15.258 155.097 15.6271C154.481 15.9826 154.105 16.3996 153.969 16.8781C155.309 17.0832 155.979 17.8146 155.979 19.0724C155.979 19.6466 155.773 20.1525 155.363 20.59C154.953 21.0275 154.379 21.2462 153.641 21.2462C153.025 21.2462 152.479 21.0343 152 20.6105C151.521 20.173 151.282 19.5646 151.282 18.7853ZM160.777 27.6447V23.3586C159.52 23.6457 158.48 23.9601 157.66 24.3019C156.84 24.63 156.211 24.9923 155.773 25.3888C155.35 25.7853 155.056 26.1955 154.892 26.6193C154.728 27.0294 154.646 27.508 154.646 28.0548C154.646 28.7384 154.844 29.2785 155.24 29.675C155.65 30.0578 156.149 30.2492 156.737 30.2492C158.104 30.2492 159.451 29.381 160.777 27.6447Z" fill="#9C0000" fill-opacity="0.83" shape-rendering="crispEdges"/>
<path d="M5.75879 2.11246L5.8013 1.11336L5.15407 1.08582L4.86436 1.66524L5.75879 2.11246ZM15.459 2.27652L16.3971 1.93011L16.1557 1.27652H15.459V2.27652ZM23.3955 23.7687L22.4574 24.1151L22.6988 24.7687H23.3955V23.7687ZM23.498 23.7687V24.7687H24.1849L24.4314 24.1276L23.498 23.7687ZM31.7627 2.27652V1.27652H31.0758L30.8293 1.9176L31.7627 2.27652ZM41.2988 2.11246L42.269 1.86992L42.0726 1.08444L41.2635 1.11308L41.2988 2.11246ZM41.2988 3.07632L41.3819 4.07287L42.1153 4.01175L42.275 3.29325L41.2988 3.07632ZM38.8994 3.40445L38.7135 2.42187L38.7085 2.42283L38.8994 3.40445ZM37.71 3.75308L38.0886 4.67863L38.1063 4.67138L38.1238 4.66345L37.71 3.75308ZM36.9102 4.28629L37.5955 5.01449L37.6066 5.0041L37.6173 4.99339L36.9102 4.28629ZM36.541 5.04507L35.5421 4.99751L35.5419 5.00256L36.541 5.04507ZM36.6025 29.4494L37.6018 29.4109L37.6016 29.4064L36.6025 29.4494ZM37.0742 30.3722L36.4206 31.129L36.4307 31.1377L36.441 31.1462L37.0742 30.3722ZM38.3662 30.9464L38.1292 31.918L38.1346 31.9192L38.3662 30.9464ZM39.8018 31.2541L39.626 32.2385L39.6455 32.242L39.6651 32.2447L39.8018 31.2541ZM41.3398 31.4181L42.31 31.1756L42.137 30.4837L41.4265 30.4219L41.3398 31.4181ZM41.3398 32.382L41.3044 33.3814L42.052 33.4079L42.2885 32.6982L41.3398 32.382ZM27.0664 32.382L26.1177 32.6982L26.3543 33.4081L27.1021 33.3814L27.0664 32.382ZM27.0664 31.4181L26.9798 30.4219L26.3665 30.4752L26.1379 31.0467L27.0664 31.4181ZM28.584 31.2541L28.7254 32.244L28.7397 32.242L28.7539 32.2395L28.584 31.2541ZM30.0195 30.9464L29.7879 29.9736L29.7826 29.9749L30.0195 30.9464ZM31.332 30.3722L31.9653 31.1462L31.9756 31.1377L31.9857 31.129L31.332 30.3722ZM31.8037 29.4494L32.803 29.4878L32.8032 29.4814L31.8037 29.4494ZM31.8037 7.05484L32.8032 7.02152L32.7709 6.05484H31.8037V7.05484ZM31.6396 7.05484V6.05484H30.9496L30.7047 6.69998L31.6396 7.05484ZM22.2676 31.7462V32.7462H22.9576L23.2025 32.1011L22.2676 31.7462ZM22.0625 31.7462L21.1329 32.1149L21.3833 32.7462H22.0625V31.7462ZM12.0752 6.56265L13.0048 6.194L12.7544 5.56265H12.0752V6.56265ZM11.8496 6.56265V5.56265H10.882L10.8502 6.52975L11.8496 6.56265ZM11.8906 29.1418L12.8904 29.1198L12.8901 29.1095L11.8906 29.1418ZM16.4229 31.4181L17.3822 31.136L17.1905 30.4841L16.5138 30.4223L16.4229 31.4181ZM16.4229 32.382L16.3851 33.3813L17.0291 33.4056L17.3173 32.8292L16.4229 32.382ZM5.10254 32.382L4.20811 32.8292L4.49446 33.4019L5.13444 33.3815L5.10254 32.382ZM5.10254 31.4181L5.00794 30.4226L4.45604 30.475L4.20811 30.9709L5.10254 31.4181ZM9.63477 29.1418L8.6355 29.1033L8.63477 29.1225V29.1418H9.63477ZM9.75781 6.97281L8.7581 6.99661L8.75811 6.99719L9.75781 6.97281ZM9.65527 5.53726L8.66464 5.6739L8.66532 5.67868L9.65527 5.53726ZM8.11719 3.40445L7.7458 4.33293L7.76202 4.33942L7.77847 4.34534L8.11719 3.40445ZM7.1123 3.11734L6.89987 4.09452L6.92378 4.09971L6.94791 4.10373L7.1123 3.11734ZM5.75879 2.89175L4.86436 3.33897L5.09961 3.80946L5.62059 3.88216L5.75879 2.89175ZM5.75879 2.11246L5.71627 3.11155C8.30596 3.22175 11.5547 3.27652 15.459 3.27652V2.27652V1.27652C11.5703 1.27652 8.35225 1.22191 5.8013 1.11336L5.75879 2.11246ZM15.459 2.27652L14.5209 2.62293L22.4574 24.1151L23.3955 23.7687L24.3336 23.4223L16.3971 1.93011L15.459 2.27652ZM23.3955 23.7687V24.7687H23.498V23.7687V22.7687H23.3955V23.7687ZM23.498 23.7687L24.4314 24.1276L32.6961 2.63544L31.7627 2.27652L30.8293 1.9176L22.5647 23.4098L23.498 23.7687ZM31.7627 2.27652V3.27652H34.1211V2.27652V1.27652H31.7627V2.27652ZM34.1211 2.27652V3.27652C35.8341 3.27652 38.2405 3.22134 41.3342 3.11183L41.2988 2.11246L41.2635 1.11308C38.1775 1.22232 35.7987 1.27652 34.1211 1.27652V2.27652ZM41.2988 2.11246L40.3287 2.35499C40.353 2.45218 40.368 2.52178 40.3765 2.5682C40.3806 2.59105 40.3822 2.60301 40.3826 2.60613C40.3832 2.61127 40.3809 2.59472 40.3809 2.56363H41.3809H42.3809C42.3809 2.34076 42.3205 2.07586 42.269 1.86992L41.2988 2.11246ZM41.3809 2.56363H40.3809C40.3809 2.54304 40.3821 2.53578 40.381 2.54748C40.3799 2.55762 40.3776 2.57641 40.3729 2.60559C40.3635 2.66462 40.3474 2.74794 40.3226 2.85939L41.2988 3.07632L42.275 3.29325C42.328 3.055 42.3809 2.78356 42.3809 2.56363H41.3809ZM41.2988 3.07632L41.2158 2.07978C40.7155 2.12147 40.2996 2.16417 39.9743 2.20854L40.1094 3.19937L40.2445 4.1902C40.5207 4.15254 40.8978 4.11321 41.3819 4.07287L41.2988 3.07632ZM40.1094 3.19937L39.9743 2.20854C39.6488 2.25292 39.2264 2.32485 38.7135 2.42188L38.8994 3.40445L39.0853 4.38702C39.5841 4.29265 39.9683 4.22786 40.2445 4.1902L40.1094 3.19937ZM38.8994 3.40445L38.7085 2.42283C38.1747 2.52664 37.6948 2.66153 37.2962 2.84272L37.71 3.75308L38.1238 4.66345C38.3267 4.57119 38.6397 4.47367 39.0903 4.38606L38.8994 3.40445ZM37.71 3.75308L37.3313 2.82754C36.9062 3.00145 36.5283 3.25396 36.203 3.57918L36.9102 4.28629L37.6173 4.99339C37.7569 4.85377 37.9122 4.75081 38.0886 4.67863L37.71 3.75308ZM36.9102 4.28629L36.2248 3.55809C35.8263 3.93312 35.5696 4.42189 35.5421 4.99751L36.541 5.04507L37.5399 5.09264C37.5402 5.0855 37.541 5.08224 37.5412 5.08157C37.5413 5.08096 37.5416 5.0799 37.5428 5.07751C37.5446 5.0738 37.5559 5.05182 37.5955 5.01449L36.9102 4.28629ZM36.541 5.04507L35.5419 5.00256C35.4044 8.23376 35.3359 12.0699 35.3359 16.5089H36.3359H37.3359C37.3359 12.0886 37.4042 8.28218 37.5401 5.08759L36.541 5.04507ZM36.3359 16.5089H35.3359C35.3359 21.0201 35.4251 25.348 35.6035 29.4924L36.6025 29.4494L37.6016 29.4064C37.4245 25.293 37.3359 20.9939 37.3359 16.5089H36.3359ZM36.6025 29.4494L35.6033 29.4878C35.6289 30.1543 35.9372 30.7116 36.4206 31.129L37.0742 30.3722L37.7278 29.6154C37.6097 29.5133 37.6035 29.4554 37.6018 29.4109L36.6025 29.4494ZM37.0742 30.3722L36.441 31.1462C36.8997 31.5215 37.488 31.7616 38.1293 31.918L38.3662 30.9464L38.6032 29.9749C38.1233 29.8579 37.8503 29.7151 37.7075 29.5983L37.0742 30.3722ZM38.3662 30.9464L38.1346 31.9192C38.7189 32.0584 39.2175 32.1656 39.626 32.2385L39.8018 31.2541L39.9775 30.2696C39.6204 30.2058 39.1619 30.1079 38.5978 29.9736L38.3662 30.9464ZM39.8018 31.2541L39.6651 32.2447C40.0848 32.3026 40.6159 32.3589 41.2532 32.4144L41.3398 31.4181L41.4265 30.4219C40.806 30.3679 40.3116 30.3149 39.9384 30.2634L39.8018 31.2541ZM41.3398 31.4181L40.3697 31.6607C40.4134 31.8353 40.4219 31.9329 40.4219 31.9718H41.4219H42.4219C42.4219 31.7099 42.3757 31.4384 42.31 31.1756L41.3398 31.4181ZM41.4219 31.9718H40.4219C40.4219 31.9456 40.4249 31.9398 40.4208 31.9603C40.4169 31.9797 40.4084 32.0141 40.3912 32.0658L41.3398 32.382L42.2885 32.6982C42.3599 32.4842 42.4219 32.2325 42.4219 31.9718H41.4219ZM41.3398 32.382L41.3753 31.3826C39.0523 31.3001 36.6615 31.2589 34.2031 31.2589V32.2589V33.2589C36.6392 33.2589 39.0063 33.2998 41.3044 33.3814L41.3398 32.382ZM34.2031 32.2589V31.2589C31.7311 31.2589 29.3403 31.3001 27.0307 31.3826L27.0664 32.382L27.1021 33.3814C29.3863 33.2998 31.7533 33.2589 34.2031 33.2589V32.2589ZM27.0664 32.382L28.0151 32.0658C27.9979 32.0141 27.9893 31.9797 27.9855 31.9603C27.9814 31.9398 27.9844 31.9456 27.9844 31.9718H26.9844H25.9844C25.9844 32.2325 26.0464 32.4842 26.1177 32.6982L27.0664 32.382ZM26.9844 31.9718H27.9844C27.9844 31.8933 27.9891 31.8393 27.9941 31.8056C27.9992 31.771 28.003 31.7693 27.9949 31.7895L27.0664 31.4181L26.1379 31.0467C26.0167 31.3499 25.9844 31.6774 25.9844 31.9718H26.9844ZM27.0664 31.4181L27.153 32.4144C27.7904 32.3589 28.3167 32.3024 28.7254 32.244L28.584 31.2541L28.4426 30.2641C28.0857 30.3151 27.6002 30.3679 26.9798 30.4219L27.0664 31.4181ZM28.584 31.2541L28.7539 32.2395C29.1802 32.166 29.6824 32.058 30.2565 31.918L30.0195 30.9464L29.7826 29.9749C29.2356 30.1083 28.7807 30.2054 28.4141 30.2686L28.584 31.2541ZM30.0195 30.9464L30.2512 31.9192C30.9031 31.764 31.5024 31.5249 31.9653 31.1462L31.332 30.3722L30.6988 29.5983C30.5601 29.7118 30.2844 29.8554 29.7879 29.9736L30.0195 30.9464ZM31.332 30.3722L31.9857 31.129C32.469 30.7116 32.7773 30.1543 32.803 29.4878L31.8037 29.4494L30.8044 29.4109C30.8027 29.4554 30.7966 29.5133 30.6784 29.6154L31.332 30.3722ZM31.8037 29.4494L32.8032 29.4814C32.9402 25.2078 33.0088 21.3892 33.0088 18.0265H32.0088H31.0088C31.0088 21.363 30.9407 25.1597 30.8042 29.4173L31.8037 29.4494ZM32.0088 18.0265H33.0088C33.0088 14.8 32.9401 11.1313 32.8032 7.02152L31.8037 7.05484L30.8043 7.08816C30.9407 11.1815 31.0088 14.8273 31.0088 18.0265H32.0088ZM31.8037 7.05484V6.05484H31.6396V7.05484V8.05484H31.8037V7.05484ZM31.6396 7.05484L30.7047 6.69998L21.3327 31.3914L22.2676 31.7462L23.2025 32.1011L32.5746 7.4097L31.6396 7.05484ZM22.2676 31.7462V30.7462H22.0625V31.7462V32.7462H22.2676V31.7462ZM22.0625 31.7462L22.9921 31.3776L13.0048 6.194L12.0752 6.56265L11.1456 6.9313L21.1329 32.1149L22.0625 31.7462ZM12.0752 6.56265V5.56265H11.8496V6.56265V7.56265H12.0752V6.56265ZM11.8496 6.56265L10.8502 6.52975C10.7403 9.86565 10.6855 13.6983 10.6855 18.0265H11.6855H12.6855C12.6855 13.7141 12.7401 9.90419 12.8491 6.59556L11.8496 6.56265ZM11.6855 18.0265H10.6855C10.6855 21.212 10.7542 24.9283 10.8911 29.174L11.8906 29.1418L12.8901 29.1095C12.7536 24.8787 12.6855 21.1848 12.6855 18.0265H11.6855ZM11.8906 29.1418L10.8909 29.1637C10.9156 30.2869 11.6454 31.0605 12.5954 31.5376C13.5178 32.0009 14.7918 32.2733 16.3319 32.414L16.4229 31.4181L16.5138 30.4223C15.0597 30.2895 14.0813 30.0458 13.493 29.7503C12.9322 29.4687 12.893 29.2408 12.8904 29.1198L11.8906 29.1418ZM16.4229 31.4181L15.4635 31.7003C15.4906 31.7925 15.5071 31.8625 15.5165 31.913C15.5262 31.9657 15.5254 31.9824 15.5254 31.9718H16.5254H17.5254C17.5254 31.6931 17.4602 31.401 17.3822 31.136L16.4229 31.4181ZM16.5254 31.9718H15.5254C15.5254 31.9559 15.5275 31.9429 15.5296 31.9344C15.5316 31.9263 15.5327 31.9262 15.5284 31.9348L16.4229 32.382L17.3173 32.8292C17.4468 32.5702 17.5254 32.2813 17.5254 31.9718H16.5254ZM16.4229 32.382L16.4606 31.3827C14.2774 31.3003 12.323 31.2589 10.5986 31.2589V32.2589V33.2589C12.2922 33.2589 14.2207 33.2996 16.3851 33.3813L16.4229 32.382ZM10.5986 32.2589V31.2589C9.4874 31.2589 7.64128 31.3005 5.07064 31.3825L5.10254 32.382L5.13444 33.3815C7.70442 33.2995 9.52237 33.2589 10.5986 33.2589V32.2589ZM5.10254 32.382L5.99697 31.9348C5.99269 31.9262 5.99375 31.9263 5.99578 31.9344C5.99791 31.9429 6 31.9559 6 31.9718H5H4C4 32.2813 4.07861 32.5702 4.20811 32.8292L5.10254 32.382ZM5 31.9718H6C6 31.9029 6.0052 31.8612 6.00892 31.8412C6.01267 31.8209 6.01293 31.8334 5.99697 31.8653L5.10254 31.4181L4.20811 30.9709C4.04357 31.3 4 31.6578 4 31.9718H5ZM5.10254 31.4181L5.19714 32.4136C6.74908 32.2662 8.02902 31.9902 8.95054 31.5273C9.8978 31.0515 10.6348 30.2747 10.6348 29.1418H9.63477H8.63477C8.63477 29.2393 8.61636 29.4571 8.05288 29.7401C7.46365 30.036 6.47748 30.283 5.00794 30.4226L5.10254 31.4181ZM9.63477 29.1418L10.634 29.1802C10.7986 24.9021 10.8809 20.6783 10.8809 16.5089H9.88086H8.88086C8.88086 20.652 8.79909 24.8502 8.6355 29.1033L9.63477 29.1418ZM9.88086 16.5089H10.8809C10.8809 13.5058 10.8397 10.3189 10.7575 6.94843L9.75781 6.97281L8.75811 6.99719C8.83997 10.3533 8.88086 13.5238 8.88086 16.5089H9.88086ZM9.75781 6.97281L10.7575 6.94901C10.7433 6.35234 10.7074 5.83141 10.6452 5.39584L9.65527 5.53726L8.66532 5.67868C8.71248 6.00874 8.74496 6.44484 8.7581 6.99661L9.75781 6.97281ZM9.65527 5.53726L10.6459 5.40063C10.579 4.91566 10.4483 4.45805 10.2335 4.04786L9.34766 4.51187L8.46182 4.97588C8.54774 5.13991 8.62217 5.3659 8.66465 5.6739L9.65527 5.53726ZM9.34766 4.51187L10.2335 4.04786C10.0533 3.70383 9.84077 3.3857 9.58308 3.12801L8.87598 3.83511L8.16887 4.54222C8.23931 4.61266 8.34125 4.74569 8.46182 4.97588L9.34766 4.51187ZM8.87598 3.83511L9.58308 3.12801C9.27261 2.81754 8.86596 2.61118 8.45591 2.46356L8.11719 3.40445L7.77847 4.34534C8.05201 4.44381 8.15122 4.52457 8.16887 4.54222L8.87598 3.83511ZM8.11719 3.40445L8.48858 2.47597C8.08705 2.31536 7.68276 2.19862 7.2767 2.13095L7.1123 3.11734L6.94791 4.10373C7.1981 4.14543 7.46373 4.2201 7.7458 4.33293L8.11719 3.40445ZM7.1123 3.11734L7.32473 2.14016C6.97328 2.06376 6.49278 1.98448 5.89699 1.90135L5.75879 2.89175L5.62059 3.88216C6.20058 3.96309 6.62243 4.0342 6.89987 4.09452L7.1123 3.11734ZM5.75879 2.89175L6.65322 2.44454C6.66355 2.46521 6.66994 2.48468 6.67345 2.50051C6.67688 2.51593 6.67676 2.52411 6.67676 2.52261H5.67676H4.67676C4.67676 2.79605 4.73241 3.07507 4.86436 3.33897L5.75879 2.89175ZM5.67676 2.52261H6.67676C6.67676 2.49523 6.67912 2.4868 6.67785 2.49314C6.67648 2.49999 6.67073 2.52465 6.65322 2.55967L5.75879 2.11246L4.86436 1.66524C4.7207 1.95258 4.67676 2.2539 4.67676 2.52261H5.67676ZM44.4775 15.381L44.375 14.3863L43.6775 14.4582L43.5074 15.1385L44.4775 15.381ZM51.4092 13.6994L51.7806 12.7709L51.3951 12.6167L51.0137 12.7809L51.4092 13.6994ZM52.127 14.2326H53.127V13.9458L52.975 13.7026L52.127 14.2326ZM52.291 29.4494L51.2917 29.4852L51.2918 29.4878L52.291 29.4494ZM52.5986 30.3722L51.7936 30.9654L51.8113 30.9895L51.8304 31.0124L52.5986 30.3722ZM54.3828 31.2541L54.1152 32.2176L54.1404 32.2246L54.1659 32.2302L54.3828 31.2541ZM55.3467 31.4181L56.2411 30.9709L56.0054 30.4995L55.4833 30.4275L55.3467 31.4181ZM55.3467 32.382L55.3013 33.381L55.8655 33.4066L56.1787 32.9367L55.3467 32.382ZM44.8877 32.382L43.9176 32.6245L44.1159 33.4181L44.9331 33.381L44.8877 32.382ZM44.8877 31.4181L44.7674 30.4254L44.049 30.5125L43.9071 31.222L44.8877 31.4181ZM45.9951 31.2541L46.1822 32.2364L46.2046 32.2321L46.2267 32.2269L45.9951 31.2541ZM48.0254 30.3722L48.7728 31.0366L48.7817 31.0266L48.7903 31.0164L48.0254 30.3722ZM48.374 29.4494L47.3748 29.409L47.3748 29.4109L48.374 29.4494ZM48.415 17.1857H49.415V16.6263L48.9383 16.3335L48.415 17.1857ZM44.4775 16.3449L43.5074 16.5874L43.6882 17.3108L44.4331 17.3439L44.4775 16.3449ZM48.4355 5.02457L47.7381 4.30777L47.7284 4.31746L48.4355 5.02457ZM52.0039 8.59293L52.7111 9.3001L52.7206 9.29028L52.0039 8.59293ZM48.4355 8.59293L47.7188 9.29028L47.7284 9.3001L47.7382 9.30965L48.4355 8.59293ZM44.4775 15.381L44.5801 16.3757C47.3098 16.0943 49.7232 15.514 51.8046 14.6179L51.4092 13.6994L51.0137 12.7809C49.1577 13.58 46.9499 14.1208 44.375 14.3863L44.4775 15.381ZM51.4092 13.6994L51.0378 14.6278C51.2638 14.7182 51.2937 14.7862 51.279 14.7626L52.127 14.2326L52.975 13.7026C52.6868 13.2415 52.2382 12.9539 51.7806 12.7709L51.4092 13.6994ZM52.127 14.2326H51.127C51.127 21.3288 51.1816 26.4168 51.2917 29.4852L52.291 29.4494L53.2904 29.4135C53.1817 26.3843 53.127 21.3278 53.127 14.2326H52.127ZM52.291 29.4494L51.2918 29.4878C51.3123 30.0221 51.4712 30.5279 51.7936 30.9654L52.5986 30.3722L53.4037 29.779C53.3432 29.697 53.2971 29.5876 53.2903 29.4109L52.291 29.4494ZM52.5986 30.3722L51.8304 31.0124C52.1703 31.4203 52.6169 31.7006 53.1126 31.8842L53.46 30.9464L53.8073 30.0087C53.5648 29.9189 53.4371 29.8163 53.3669 29.732L52.5986 30.3722ZM53.46 30.9464L53.1126 31.8842C53.4956 32.026 53.8319 32.1389 54.1152 32.2176L54.3828 31.2541L54.6505 30.2905C54.4415 30.2325 54.1626 30.1403 53.8073 30.0087L53.46 30.9464ZM54.3828 31.2541L54.1659 32.2302C54.4492 32.2932 54.8003 32.3522 55.21 32.4087L55.3467 31.4181L55.4833 30.4275C55.1001 30.3746 54.8086 30.3243 54.5997 30.2779L54.3828 31.2541ZM55.3467 31.4181L54.4523 31.8653C54.4672 31.8951 54.4697 31.9134 54.4697 31.9308H55.4697H56.4697C56.4697 31.5928 56.3903 31.2692 56.2411 30.9709L55.3467 31.4181ZM55.4697 31.9308H54.4697C54.4697 31.943 54.4683 31.9354 54.4742 31.9138C54.4804 31.8909 54.4929 31.8599 54.5146 31.8273L55.3467 32.382L56.1787 32.9367C56.3907 32.6187 56.4697 32.2656 56.4697 31.9308H55.4697ZM55.3467 32.382L55.3921 31.383C53.5732 31.3003 51.8081 31.2589 50.0967 31.2589V32.2589V33.2589C51.7759 33.2589 53.5107 33.2996 55.3013 33.381L55.3467 32.382ZM50.0967 32.2589V31.2589C48.4124 31.2589 46.6609 31.3004 44.8423 31.383L44.8877 32.382L44.9331 33.381C46.7239 33.2996 48.445 33.2589 50.0967 33.2589V32.2589ZM44.8877 32.382L45.8578 32.1395C45.8335 32.0423 45.8185 31.9727 45.81 31.9262C45.8059 31.9034 45.8043 31.8914 45.8039 31.8883C45.8033 31.8832 45.8057 31.8997 45.8057 31.9308H44.8057H43.8057C43.8057 32.1537 43.8661 32.4186 43.9176 32.6245L44.8877 32.382ZM44.8057 31.9308H45.8057C45.8057 31.9697 45.8025 31.9898 45.8043 31.9739C45.8055 31.9637 45.8082 31.9431 45.8136 31.9094C45.8244 31.8419 45.8421 31.7449 45.8683 31.6142L44.8877 31.4181L43.9071 31.222C43.8786 31.3648 43.8553 31.4899 43.8387 31.5934C43.8256 31.6757 43.8057 31.8076 43.8057 31.9308H44.8057ZM44.8877 31.4181L45.008 32.4109C45.4708 32.3548 45.8644 32.2969 46.1822 32.2364L45.9951 31.2541L45.808 30.2717C45.5516 30.3206 45.2069 30.3721 44.7674 30.4254L44.8877 31.4181ZM45.9951 31.2541L46.2267 32.2269C46.5485 32.1503 46.931 32.0393 47.3685 31.8982L47.0615 30.9464L46.7545 29.9947C46.3444 30.127 46.0159 30.2211 45.7635 30.2813L45.9951 31.2541ZM47.0615 30.9464L47.3685 31.8982C47.9045 31.7253 48.4009 31.455 48.7728 31.0366L48.0254 30.3722L47.278 29.7079C47.2124 29.7816 47.0662 29.8942 46.7545 29.9947L47.0615 30.9464ZM48.0254 30.3722L48.7903 31.0164C49.1595 30.5779 49.3515 30.0543 49.3733 29.4878L48.374 29.4494L47.3748 29.4109C47.3692 29.5554 47.3288 29.647 47.2605 29.7281L48.0254 30.3722ZM48.374 29.4494L49.3732 29.4897C49.4286 28.1185 49.4561 26.4636 49.4561 24.5275H48.4561H47.4561C47.4561 26.4469 47.4288 28.0732 47.3748 29.409L48.374 29.4494ZM48.4561 24.5275H49.4561C49.4561 23.88 49.4492 22.7823 49.4355 21.2374L48.4355 21.2462L47.4356 21.2551C47.4493 22.8 47.4561 23.8898 47.4561 24.5275H48.4561ZM48.4355 21.2462L49.4355 21.2374C49.4219 19.6945 49.415 18.3441 49.415 17.1857H48.415H47.415C47.415 18.3515 47.4219 19.7081 47.4356 21.2551L48.4355 21.2462ZM48.415 17.1857L48.9383 16.3335C47.9295 15.7141 46.3972 15.4292 44.5219 15.3459L44.4775 16.3449L44.4331 17.3439C46.2493 17.4246 47.342 17.7003 47.8918 18.0379L48.415 17.1857ZM44.4775 16.3449L45.4477 16.1023C45.4254 16.0131 45.4115 15.9447 45.4035 15.8947C45.3951 15.8422 45.3955 15.8244 45.3955 15.8322H44.3955H43.3955C43.3955 16.0784 43.4464 16.3434 43.5074 16.5874L44.4775 16.3449ZM44.3955 15.8322H45.3955C45.3955 15.8633 45.3932 15.8798 45.3938 15.8747C45.3942 15.8716 45.3957 15.8596 45.3999 15.8368C45.4083 15.7903 45.4234 15.7207 45.4477 15.6235L44.4775 15.381L43.5074 15.1385C43.4559 15.3444 43.3955 15.6093 43.3955 15.8322H44.3955ZM47.6973 6.80875H48.6973C48.6973 6.37618 48.8384 6.03596 49.1427 5.73167L48.4355 5.02457L47.7284 4.31746C47.0484 4.99755 46.6973 5.84678 46.6973 6.80875H47.6973ZM48.4355 5.02457L49.1329 5.74129C49.4588 5.42418 49.8059 5.28629 50.2197 5.28629V4.28629V3.28629C49.2664 3.28629 48.424 3.64058 47.7382 4.30784L48.4355 5.02457ZM50.2197 4.28629V5.28629C50.6523 5.28629 50.9925 5.42739 51.2968 5.73167L52.0039 5.02457L52.711 4.31746C52.0309 3.63737 51.1817 3.28629 50.2197 3.28629V4.28629ZM52.0039 5.02457L51.2968 5.73167C51.6011 6.03596 51.7422 6.37618 51.7422 6.80875H52.7422H53.7422C53.7422 5.84678 53.3911 4.99755 52.711 4.31746L52.0039 5.02457ZM52.7422 6.80875H51.7422C51.7422 7.2226 51.6043 7.56965 51.2872 7.89557L52.0039 8.59293L52.7206 9.29028C53.3879 8.60448 53.7422 7.76208 53.7422 6.80875H52.7422ZM52.0039 8.59293L51.2968 7.88582C50.9925 8.1901 50.6523 8.33121 50.2197 8.33121V9.33121V10.3312C51.1817 10.3312 52.0309 9.98012 52.711 9.30003L52.0039 8.59293ZM50.2197 9.33121V8.33121C49.8059 8.33121 49.4588 8.19331 49.1329 7.8762L48.4355 8.59293L47.7382 9.30965C48.424 9.97692 49.2664 10.3312 50.2197 10.3312V9.33121ZM48.4355 8.59293L49.1523 7.89557C48.8352 7.56965 48.6973 7.2226 48.6973 6.80875H47.6973H46.6973C46.6973 7.76208 47.0516 8.60448 47.7188 9.29028L48.4355 8.59293ZM69.1689 31.4181L70.0634 30.9709L69.8277 30.4995L69.3056 30.4275L69.1689 31.4181ZM69.1689 32.382L69.1235 33.381L69.7727 33.4105L70.0634 32.8292L69.1689 32.382ZM58.71 32.382L57.7398 32.6245L57.9382 33.4181L58.7554 33.381L58.71 32.382ZM58.71 31.4181L58.5896 30.4254L57.8713 30.5125L57.7294 31.222L58.71 31.4181ZM59.8174 31.2541L60.0045 32.2364L60.0269 32.2321L60.049 32.2269L59.8174 31.2541ZM61.8477 30.3722L62.5951 31.0366L62.604 31.0266L62.6126 31.0164L61.8477 30.3722ZM62.1963 29.4494L61.1971 29.409L61.197 29.4109L62.1963 29.4494ZM62.2373 17.1857H63.2373V16.6263L62.7606 16.3335L62.2373 17.1857ZM58.2998 16.3449L57.3297 16.5874L57.5105 17.3108L58.2554 17.3439L58.2998 16.3449ZM58.2998 15.381L58.1973 14.3863L57.4997 14.4582L57.3297 15.1385L58.2998 15.381ZM65.2314 13.6994L65.6028 12.7709L65.2173 12.6167L64.836 12.7809L65.2314 13.6994ZM65.9492 14.2326H66.9492V13.9458L66.7972 13.7026L65.9492 14.2326ZM65.9492 17.4728H64.9492V19.6787L66.6083 18.2249L65.9492 17.4728ZM69.7637 14.6837L70.2609 15.5514L70.2681 15.5472L69.7637 14.6837ZM76.7568 14.9298L75.9508 15.5218L75.9568 15.5298L76.7568 14.9298ZM77.7822 19.0314L76.7823 19.0461L76.7824 19.0511L77.7822 19.0314ZM77.9873 29.4494L76.9875 29.4691L76.9877 29.4784L76.988 29.4878L77.9873 29.4494ZM78.2949 30.3722L77.4899 30.9654L77.5076 30.9895L77.5267 31.0124L78.2949 30.3722ZM79.1562 30.9464L78.8089 31.8843L78.8199 31.8882L79.1562 30.9464ZM80.0996 31.2541L79.832 32.2176L79.8572 32.2246L79.8827 32.2302L80.0996 31.2541ZM81.0635 31.4181L82.0441 31.222L81.9046 30.5247L81.2001 30.4275L81.0635 31.4181ZM81.0635 32.382L81.017 33.3809L81.7729 33.4161L82.0122 32.6982L81.0635 32.382ZM71.3633 32.382L70.3931 32.6245L70.5917 33.419L71.4097 33.3809L71.3633 32.382ZM71.3633 31.4181L71.2112 30.4297L70.5543 30.5308L70.3931 31.1756L71.3633 31.4181ZM72.2451 31.2541L72.4742 32.2275L72.4936 32.2229L72.5128 32.2176L72.2451 31.2541ZM73.0654 30.9464L72.6667 30.0294L72.6591 30.0327L72.6516 30.0361L73.0654 30.9464ZM73.7627 30.3722L72.9172 29.8382L72.9133 29.8445L72.9094 29.8508L73.7627 30.3722ZM74.0088 29.4494L73.0088 29.4452V29.4494H74.0088ZM74.0498 19.7082L75.0498 19.7124V19.7082H74.0498ZM65.9492 18.7853L65.3548 17.9811L64.9492 18.2809V18.7853H65.9492ZM66.1133 29.4494L65.1139 29.4843L65.114 29.4878L66.1133 29.4494ZM66.4209 30.3722L65.6158 30.9654L65.6336 30.9895L65.6527 31.0124L66.4209 30.3722ZM68.2051 31.2541L67.9374 32.2176L67.9626 32.2246L67.9881 32.2302L68.2051 31.2541ZM69.1689 31.4181L68.2745 31.8653C68.2894 31.8951 68.292 31.9134 68.292 31.9308H69.292H70.292C70.292 31.5928 70.2125 31.2692 70.0634 30.9709L69.1689 31.4181ZM69.292 31.9308H68.292C68.292 31.8989 68.2968 31.8818 68.2965 31.883C68.2963 31.8836 68.295 31.8882 68.2915 31.8971C68.2881 31.906 68.2827 31.9185 68.2745 31.9348L69.1689 32.382L70.0634 32.8292C70.1922 32.5715 70.292 32.2665 70.292 31.9308H69.292ZM69.1689 32.382L69.2144 31.383C67.3955 31.3003 65.6303 31.2589 63.9189 31.2589V32.2589V33.2589C65.5982 33.2589 67.333 33.2996 69.1235 33.381L69.1689 32.382ZM63.9189 32.2589V31.2589C62.2346 31.2589 60.4831 31.3004 58.6646 31.383L58.71 32.382L58.7554 33.381C60.5462 33.2996 62.2673 33.2589 63.9189 33.2589V32.2589ZM58.71 32.382L59.6801 32.1395C59.6558 32.0423 59.6407 31.9727 59.6323 31.9262C59.6282 31.9034 59.6266 31.8914 59.6262 31.8883C59.6256 31.8832 59.6279 31.8997 59.6279 31.9308H58.6279H57.6279C57.6279 32.1537 57.6883 32.4186 57.7398 32.6245L58.71 32.382ZM58.6279 31.9308H59.6279C59.6279 31.9697 59.6248 31.9898 59.6266 31.9739C59.6278 31.9637 59.6305 31.9431 59.6359 31.9094C59.6467 31.8419 59.6644 31.7449 59.6905 31.6142L58.71 31.4181L57.7294 31.222C57.7008 31.3648 57.6776 31.4899 57.661 31.5934C57.6478 31.6757 57.6279 31.8076 57.6279 31.9308H58.6279ZM58.71 31.4181L58.8303 32.4109C59.2931 32.3548 59.6867 32.2969 60.0045 32.2364L59.8174 31.2541L59.6303 30.2717C59.3739 30.3206 59.0292 30.3721 58.5896 30.4254L58.71 31.4181ZM59.8174 31.2541L60.049 32.2269C60.3708 32.1503 60.7532 32.0393 61.1908 31.8982L60.8838 30.9464L60.5768 29.9947C60.1667 30.127 59.8382 30.2211 59.5858 30.2813L59.8174 31.2541ZM60.8838 30.9464L61.1908 31.8982C61.7267 31.7253 62.2231 31.455 62.5951 31.0366L61.8477 30.3722L61.1002 29.7079C61.0347 29.7816 60.8885 29.8942 60.5768 29.9947L60.8838 30.9464ZM61.8477 30.3722L62.6126 31.0164C62.9818 30.5779 63.1738 30.0543 63.1955 29.4878L62.1963 29.4494L61.197 29.4109C61.1915 29.5554 61.151 29.647 61.0827 29.7281L61.8477 30.3722ZM62.1963 29.4494L63.1955 29.4897C63.2509 28.1185 63.2783 26.4636 63.2783 24.5275H62.2783H61.2783C61.2783 26.4469 61.2511 28.0732 61.1971 29.409L62.1963 29.4494ZM62.2783 24.5275H63.2783C63.2783 23.88 63.2714 22.7823 63.2578 21.2374L62.2578 21.2462L61.2579 21.2551C61.2715 22.8 61.2783 23.8898 61.2783 24.5275H62.2783ZM62.2578 21.2462L63.2578 21.2374C63.2441 19.6945 63.2373 18.3441 63.2373 17.1857H62.2373H61.2373C61.2373 18.3515 61.2442 19.7081 61.2579 21.2551L62.2578 21.2462ZM62.2373 17.1857L62.7606 16.3335C61.7517 15.7141 60.2194 15.4292 58.3442 15.3459L58.2998 16.3449L58.2554 17.3439C60.0716 17.4246 61.1643 17.7003 61.714 18.0379L62.2373 17.1857ZM58.2998 16.3449L59.2699 16.1023C59.2476 16.0131 59.2337 15.9447 59.2257 15.8947C59.2173 15.8422 59.2178 15.8244 59.2178 15.8322H58.2178H57.2178C57.2178 16.0784 57.2687 16.3434 57.3297 16.5874L58.2998 16.3449ZM58.2178 15.8322H59.2178C59.2178 15.8633 59.2154 15.8798 59.216 15.8747C59.2164 15.8716 59.218 15.8596 59.2222 15.8368C59.2306 15.7903 59.2457 15.7207 59.2699 15.6235L58.2998 15.381L57.3297 15.1385C57.2782 15.3444 57.2178 15.6093 57.2178 15.8322H58.2178ZM58.2998 15.381L58.4024 16.3757C61.1321 16.0943 63.5455 15.514 65.6269 14.6179L65.2314 13.6994L64.836 12.7809C62.9799 13.58 60.7722 14.1208 58.1973 14.3863L58.2998 15.381ZM65.2314 13.6994L64.8601 14.6278C65.086 14.7182 65.116 14.7862 65.1012 14.7626L65.9492 14.2326L66.7972 13.7026C66.509 13.2415 66.0604 12.9539 65.6028 12.7709L65.2314 13.6994ZM65.9492 14.2326H64.9492V17.4728H65.9492H66.9492V14.2326H65.9492ZM65.9492 17.4728L66.6083 18.2249C67.8966 17.096 69.1142 16.2085 70.2609 15.5514L69.7637 14.6837L69.2665 13.8161C67.9795 14.5536 66.6542 15.5254 65.2902 16.7207L65.9492 17.4728ZM69.7637 14.6837L70.2681 15.5472C71.3526 14.9136 72.4108 14.6173 73.4551 14.6173V13.6173V12.6173C72.0111 12.6173 70.6084 13.032 69.2592 13.8203L69.7637 14.6837ZM73.4551 13.6173V14.6173C74.8422 14.6173 75.5693 15.0023 75.9508 15.5217L76.7568 14.9298L77.5628 14.3379C76.6592 13.1074 75.1851 12.6173 73.4551 12.6173V13.6173ZM76.7568 14.9298L75.9568 15.5298C76.4247 16.1537 76.7561 17.265 76.7823 19.0461L77.7822 19.0314L78.7821 19.0167C78.7536 17.079 78.4014 15.456 77.5568 14.3298L76.7568 14.9298ZM77.7822 19.0314L76.7824 19.0511L76.9875 29.4691L77.9873 29.4494L78.9871 29.4297L78.782 19.0117L77.7822 19.0314ZM77.9873 29.4494L76.988 29.4878C77.0086 30.0221 77.1675 30.5279 77.4899 30.9654L78.2949 30.3722L79.1 29.779C79.0395 29.697 78.9934 29.5876 78.9866 29.4109L77.9873 29.4494ZM78.2949 30.3722L77.5267 31.0124C77.8666 31.4203 78.3131 31.7006 78.8089 31.8842L79.1562 30.9464L79.5036 30.0087C79.2611 29.9189 79.1334 29.8163 79.0631 29.732L78.2949 30.3722ZM79.1562 30.9464L78.8199 31.8882C79.2138 32.0289 79.5533 32.1402 79.832 32.2176L80.0996 31.2541L80.3673 30.2905C80.1537 30.2312 79.8643 30.1375 79.4926 30.0047L79.1562 30.9464ZM80.0996 31.2541L79.8827 32.2302C80.166 32.2932 80.5171 32.3522 80.9268 32.4087L81.0635 31.4181L81.2001 30.4275C80.8169 30.3746 80.5254 30.3243 80.3165 30.2779L80.0996 31.2541ZM81.0635 31.4181L80.0829 31.6142C80.1084 31.7417 80.1255 31.8384 80.1358 31.9082C80.1409 31.9428 80.1437 31.9663 80.1451 31.9805C80.1467 31.9968 80.1455 31.9915 80.1455 31.9718H81.1455H82.1455C82.1455 31.7613 82.0958 31.4809 82.0441 31.222L81.0635 31.4181ZM81.1455 31.9718H80.1455C80.1455 31.9456 80.1485 31.9398 80.1444 31.9603C80.1405 31.9797 80.132 32.0141 80.1148 32.0658L81.0635 32.382L82.0122 32.6982C82.0835 32.4842 82.1455 32.2325 82.1455 31.9718H81.1455ZM81.0635 32.382L81.1099 31.3831C79.3335 31.3004 77.6909 31.2589 76.1826 31.2589V32.2589V33.2589C77.6548 33.2589 79.2661 33.2995 81.017 33.3809L81.0635 32.382ZM76.1826 32.2589V31.2589C74.715 31.2589 73.0928 31.3005 71.3168 31.3831L71.3633 32.382L71.4097 33.3809C73.1611 33.2994 74.7518 33.2589 76.1826 33.2589V32.2589ZM71.3633 32.382L72.3334 32.1395C72.3104 32.0475 72.2962 31.9789 72.2882 31.9305C72.2794 31.8779 72.2812 31.8689 72.2812 31.8898H71.2812H70.2812C70.2812 32.1283 70.3349 32.3917 70.3931 32.6245L71.3633 32.382ZM71.2812 31.8898H72.2812C72.2812 31.9112 72.2799 31.9207 72.2806 31.914C72.2812 31.9083 72.2829 31.8946 72.287 31.8714C72.2952 31.8242 72.3098 31.7552 72.3334 31.6607L71.3633 31.4181L70.3931 31.1756C70.3381 31.3958 70.2812 31.6591 70.2812 31.8898H71.2812ZM71.3633 31.4181L71.5153 32.4065C71.8851 32.3496 72.207 32.2903 72.4742 32.2275L72.2451 31.2541L72.0161 30.2806C71.8184 30.3272 71.5524 30.3773 71.2112 30.4297L71.3633 31.4181ZM72.2451 31.2541L72.5128 32.2176C72.8209 32.132 73.1441 32.0091 73.4792 31.8568L73.0654 30.9464L72.6516 30.0361C72.3852 30.1572 72.1615 30.2394 71.9775 30.2905L72.2451 31.2541ZM73.0654 30.9464L73.4642 31.8635C73.9307 31.6606 74.3393 31.3464 74.616 30.8937L73.7627 30.3722L72.9094 29.8508C72.8853 29.8903 72.829 29.9588 72.6667 30.0294L73.0654 30.9464ZM73.7627 30.3722L74.6082 30.9062C74.8882 30.4628 75.0088 29.9636 75.0088 29.4494H74.0088H73.0088C73.0088 29.6461 72.9653 29.7621 72.9172 29.8382L73.7627 30.3722ZM74.0088 29.4494L75.0088 29.4536L75.0498 19.7124L74.0498 19.7082L73.0498 19.7039L73.0088 29.4452L74.0088 29.4494ZM74.0498 19.7082H75.0498C75.0498 18.4031 74.8592 17.2578 74.3476 16.4083C73.7872 15.4778 72.8966 14.9962 71.8145 14.9962V15.9962V16.9962C72.2225 16.9962 72.4496 17.1334 72.6343 17.4401C72.8679 17.828 73.0498 18.5386 73.0498 19.7082H74.0498ZM71.8145 15.9962V14.9962C70.9092 14.9962 69.9178 15.2935 68.8728 15.7904C67.8179 16.2921 66.6437 17.0285 65.3548 17.9811L65.9492 18.7853L66.5436 19.5895C67.7704 18.6827 68.8315 18.0247 69.7317 17.5966C70.6418 17.1638 71.3252 16.9962 71.8145 16.9962V15.9962ZM65.9492 18.7853H64.9492C64.9492 22.7725 65.004 26.3392 65.1139 29.4843L66.1133 29.4494L67.1127 29.4145C67.0038 26.2978 66.9492 22.7551 66.9492 18.7853H65.9492ZM66.1133 29.4494L65.114 29.4878C65.1346 30.0221 65.2935 30.5279 65.6158 30.9654L66.4209 30.3722L67.226 29.779C67.1655 29.697 67.1193 29.5876 67.1125 29.4109L66.1133 29.4494ZM66.4209 30.3722L65.6527 31.0124C65.9926 31.4203 66.4391 31.7006 66.9349 31.8842L67.2822 30.9464L67.6295 30.0087C67.3871 29.9189 67.2594 29.8163 67.1891 29.732L66.4209 30.3722ZM67.2822 30.9464L66.9349 31.8842C67.3179 32.026 67.6542 32.1389 67.9374 32.2176L68.2051 31.2541L68.4727 30.2905C68.2638 30.2325 67.9849 30.1403 67.6295 30.0087L67.2822 30.9464ZM68.2051 31.2541L67.9881 32.2302C68.2715 32.2932 68.6225 32.3522 69.0323 32.4087L69.1689 31.4181L69.3056 30.4275C68.9224 30.3746 68.6308 30.3243 68.422 30.2779L68.2051 31.2541ZM94.2295 2.76871L94.1347 1.77321L93.4308 1.84025L93.2593 2.52617L94.2295 2.76871ZM101.161 1.08707L101.551 0.1661L101.158 -3.8147e-06L100.766 0.168241L101.161 1.08707ZM101.858 1.64078H102.858V1.40471L102.753 1.19356L101.858 1.64078ZM102.043 29.4494L103.042 29.4109L103.042 29.409L102.043 29.4494ZM102.351 30.3722L101.546 30.9654L101.563 30.9895L101.582 31.0124L102.351 30.3722ZM104.135 31.2541L103.867 32.2176L103.892 32.2246L103.918 32.2302L104.135 31.2541ZM105.099 31.4181L106.069 31.1756L105.905 30.5199L105.235 30.4275L105.099 31.4181ZM105.099 32.382L105.042 33.3804L105.868 33.4276L106.069 32.6245L105.099 32.382ZM103.622 32.3L103.567 33.2984L103.568 33.2985L103.622 32.3ZM98.5566 32.382L98.1852 33.3105L98.3943 33.3941L98.619 33.38L98.5566 32.382ZM98.3721 32.2794L98.9721 31.4795L98.9499 31.4628L98.9268 31.4474L98.3721 32.2794ZM98.2695 32.2179L97.3751 32.6651L97.5242 32.9633L97.8223 33.1124L98.2695 32.2179ZM98.208 32.1154L97.3136 32.5626L97.3414 32.6183L97.376 32.6701L98.208 32.1154ZM98.085 31.8898L97.0986 32.0542L97.1163 32.1608L97.1565 32.2612L98.085 31.8898ZM98.0439 31.7462L97.0575 31.5818L96.9729 32.0895L97.3368 32.4534L98.0439 31.7462ZM98.126 29.5314H99.126V27.1482L97.4254 28.8178L98.126 29.5314ZM90.8252 14.2736L91.1751 15.2104L91.1849 15.2066L90.8252 14.2736ZM98.208 14.2736L97.906 15.2269L99.2225 15.644L99.208 14.2631L98.208 14.2736ZM98.167 4.57339H99.167V3.99684L98.668 3.70797L98.167 4.57339ZM94.2295 3.73257L93.2593 3.97511L93.4374 4.68739L94.1703 4.73082L94.2295 3.73257ZM98.167 27.9728L98.861 28.6928L99.1584 28.4061L99.1668 27.9932L98.167 27.9728ZM98.208 17.3908H99.208V17.1218L99.0731 16.8892L98.208 17.3908ZM90.1074 17.2882L89.2572 16.7619L89.2526 16.7693L89.2481 16.7768L90.1074 17.2882ZM89.2461 19.6877L90.2207 19.9116L90.2214 19.9087L89.2461 19.6877ZM90.1484 28.1984L89.3044 28.7347L89.3084 28.7409L90.1484 28.1984ZM94.2295 2.76871L94.3243 3.7642C96.9944 3.50991 99.4086 2.92816 101.556 2.00589L101.161 1.08707L100.766 0.168241C98.8394 0.995974 96.6325 1.53532 94.1347 1.77321L94.2295 2.76871ZM101.161 1.08707L100.771 2.00803C100.889 2.05793 100.952 2.09928 100.98 2.1214C101.006 2.14196 100.987 2.13396 100.964 2.08799L101.858 1.64078L102.753 1.19356C102.49 0.66875 102.006 0.3585 101.551 0.1661L101.161 1.08707ZM101.858 1.64078H100.858C100.858 17.1204 100.92 26.4155 101.044 29.4897L102.043 29.4494L103.042 29.409C102.92 26.3856 102.858 17.1417 102.858 1.64078H101.858ZM102.043 29.4494L101.044 29.4878C101.064 30.0221 101.223 30.5279 101.546 30.9654L102.351 30.3722L103.156 29.779C103.095 29.697 103.049 29.5876 103.042 29.4109L102.043 29.4494ZM102.351 30.3722L101.582 31.0124C101.922 31.4203 102.369 31.7006 102.865 31.8842L103.212 30.9464L103.559 30.0087C103.317 29.9189 103.189 29.8163 103.119 29.732L102.351 30.3722ZM103.212 30.9464L102.865 31.8842C103.248 32.026 103.584 32.1389 103.867 32.2176L104.135 31.2541L104.402 30.2905C104.193 30.2325 103.915 30.1403 103.559 30.0087L103.212 30.9464ZM104.135 31.2541L103.918 32.2302C104.201 32.2932 104.552 32.3522 104.962 32.4087L105.099 31.4181L105.235 30.4275C104.852 30.3746 104.561 30.3243 104.352 30.2779L104.135 31.2541ZM105.099 31.4181L104.128 31.6607C104.151 31.75 104.165 31.8183 104.173 31.8683C104.181 31.9208 104.181 31.9386 104.181 31.9308H105.181H106.181C106.181 31.6846 106.13 31.4196 106.069 31.1756L105.099 31.4181ZM105.181 31.9308H104.181C104.181 31.8997 104.183 31.8832 104.182 31.8883C104.182 31.8914 104.18 31.9034 104.176 31.9262C104.168 31.9727 104.153 32.0423 104.128 32.1395L105.099 32.382L106.069 32.6245C106.12 32.4186 106.181 32.1537 106.181 31.9308H105.181ZM105.099 32.382L105.156 31.3836C104.676 31.3562 104.183 31.3288 103.676 31.3014L103.622 32.3L103.568 33.2985C104.073 33.3258 104.564 33.3531 105.042 33.3804L105.099 32.382ZM103.622 32.3L103.678 31.3015C103.184 31.2741 102.792 31.2534 102.501 31.2396L102.453 32.2384L102.406 33.2373C102.689 33.2508 103.075 33.2711 103.567 33.2984L103.622 32.3ZM102.453 32.2384L102.501 31.2396C102.2 31.2253 101.918 31.2179 101.653 31.2179V32.2179V33.2179C101.881 33.2179 102.132 33.2243 102.406 33.2373L102.453 32.2384ZM101.653 32.2179V31.2179C101.427 31.2179 101.176 31.2255 100.903 31.2398L100.956 32.2384L101.009 33.2371C101.255 33.2241 101.47 33.2179 101.653 33.2179V32.2179ZM100.956 32.2384L100.903 31.2398C100.64 31.2537 100.281 31.2744 99.8292 31.3018L99.8896 32.3L99.9501 33.2981C100.4 33.2708 100.753 33.2505 101.009 33.2371L100.956 32.2384ZM99.8896 32.3L99.8292 31.3018C99.3774 31.3292 98.9324 31.3566 98.4943 31.3839L98.5566 32.382L98.619 33.38C99.0559 33.3527 99.4996 33.3254 99.9501 33.2981L99.8896 32.3ZM98.5566 32.382L98.928 31.4535C98.9349 31.4563 98.9513 31.4639 98.9721 31.4795L98.3721 32.2794L97.7721 33.0794C97.9022 33.177 98.0416 33.253 98.1852 33.3105L98.5566 32.382ZM98.3721 32.2794L98.9268 31.4474C98.8694 31.4091 98.7966 31.3634 98.7167 31.3235L98.2695 32.2179L97.8223 33.1124C97.8144 33.1084 97.8088 33.1054 97.8057 33.1036C97.8025 33.1018 97.8009 33.1009 97.8012 33.1011C97.8019 33.1015 97.8071 33.1047 97.8174 33.1115L98.3721 32.2794ZM98.2695 32.2179L99.164 31.7707C99.124 31.6909 99.0783 31.6181 99.0401 31.5607L98.208 32.1154L97.376 32.6701C97.3828 32.6803 97.3859 32.6855 97.3864 32.6863C97.3866 32.6865 97.3856 32.685 97.3838 32.6818C97.3821 32.6786 97.379 32.673 97.3751 32.6651L98.2695 32.2179ZM98.208 32.1154L99.1024 31.6682C99.0827 31.6286 99.058 31.5816 99.0296 31.5342C99.0119 31.5047 98.9517 31.4039 98.8536 31.3057L98.1465 32.0128L97.4394 32.72C97.3893 32.6699 97.3574 32.6265 97.3443 32.6082C97.3288 32.5865 97.3187 32.5701 97.3146 32.5632C97.3067 32.5501 97.306 32.5475 97.3136 32.5626L98.208 32.1154ZM98.1465 32.0128L98.8536 31.3057C98.8941 31.3462 98.9231 31.3825 98.941 31.4064C98.9598 31.4314 98.9737 31.4527 98.9829 31.4675C99.0008 31.496 99.0116 31.5173 99.0153 31.5246C99.0225 31.5391 99.0222 31.5402 99.0134 31.5184L98.085 31.8898L97.1565 32.2612C97.1751 32.3077 97.1987 32.3635 97.2264 32.419C97.2369 32.4399 97.3064 32.587 97.4394 32.72L98.1465 32.0128ZM98.085 31.8898L99.0714 31.7254C99.0618 31.6683 99.0477 31.5938 99.026 31.5177C99.0152 31.4799 98.997 31.422 98.968 31.3568C98.9461 31.3074 98.8828 31.1709 98.7511 31.0391L98.0439 31.7462L97.3368 32.4534C97.2681 32.3846 97.2234 32.3193 97.1974 32.2771C97.1702 32.2329 97.1519 32.1949 97.1404 32.169C97.1182 32.1192 97.1069 32.081 97.1029 32.0671C97.0948 32.0388 97.0944 32.0293 97.0986 32.0542L98.085 31.8898ZM98.0439 31.7462L99.0303 31.9106C99.1013 31.4846 99.126 30.6572 99.126 29.5314H98.126H97.126C97.126 30.7025 97.0959 31.3516 97.0575 31.5818L98.0439 31.7462ZM98.126 29.5314L97.4254 28.8178C95.2411 30.9624 93.3968 31.8537 91.8711 31.8537V32.8537V33.8537C94.1736 33.8537 96.4991 32.5301 98.8266 30.245L98.126 29.5314ZM91.8711 32.8537V31.8537C90.0555 31.8537 88.6229 31.1872 87.4908 29.8333L86.7236 30.4748L85.9565 31.1162C87.4767 32.9342 89.4757 33.8537 91.8711 33.8537V32.8537ZM86.7236 30.4748L87.4908 29.8333C86.3577 28.4782 85.7344 26.5705 85.7344 23.9943H84.7344H83.7344C83.7344 26.8868 84.4372 29.2994 85.9565 31.1162L86.7236 30.4748ZM84.7344 23.9943H85.7344C85.7344 23.129 85.8346 22.2614 86.0367 21.3901L85.0625 21.1642L84.0883 20.9383C83.8529 21.9538 83.7344 22.9729 83.7344 23.9943H84.7344ZM85.0625 21.1642L86.0367 21.3901C86.2329 20.5437 86.56 19.7002 87.0248 18.8586L86.1494 18.3752L85.274 17.8917C84.7271 18.8821 84.3296 19.898 84.0883 20.9383L85.0625 21.1642ZM86.1494 18.3752L87.0248 18.8586C87.4822 18.0302 88.0414 17.3064 88.7022 16.6822L88.0156 15.9552L87.329 15.2282C86.5133 15.9986 85.8283 16.888 85.274 17.8917L86.1494 18.3752ZM88.0156 15.9552L88.7022 16.6822C89.3266 16.0926 90.1418 15.5963 91.1751 15.2104L90.8252 14.2736L90.4753 13.3368C89.2391 13.7985 88.1812 14.4233 87.329 15.2282L88.0156 15.9552ZM90.8252 14.2736L91.1849 15.2066C92.1905 14.819 93.3243 14.6173 94.5986 14.6173V13.6173V12.6173C93.1113 12.6173 91.7295 12.8532 90.4655 13.3405L90.8252 14.2736ZM94.5986 13.6173V14.6173C95.4889 14.6173 96.5859 14.8086 97.906 15.2269L98.208 14.2736L98.51 13.3203C97.0684 12.8635 95.7591 12.6173 94.5986 12.6173V13.6173ZM98.208 14.2736L99.208 14.2631C99.1807 11.6702 99.167 8.44054 99.167 4.57339H98.167H97.167C97.167 8.44453 97.1807 11.6817 97.2081 14.2841L98.208 14.2736ZM98.167 4.57339L98.668 3.70797C97.6738 3.13235 96.1593 2.84518 94.2887 2.73433L94.2295 3.73257L94.1703 4.73082C95.9911 4.83872 97.1016 5.1121 97.666 5.43882L98.167 4.57339ZM94.2295 3.73257L95.1996 3.49004C95.1766 3.39809 95.1624 3.32951 95.1544 3.28107C95.1456 3.22848 95.1475 3.21949 95.1475 3.24039H94.1475H93.1475C93.1475 3.47889 93.2011 3.74225 93.2593 3.97511L94.2295 3.73257ZM94.1475 3.24039H95.1475C95.1475 3.26182 95.1461 3.2713 95.1468 3.26456C95.1474 3.25888 95.1491 3.24521 95.1532 3.22203C95.1614 3.17481 95.176 3.10583 95.1996 3.01124L94.2295 2.76871L93.2593 2.52617C93.2043 2.74642 93.1475 3.00966 93.1475 3.24039H94.1475ZM93.8398 30.1671V31.1671C95.576 31.1671 97.2552 30.2407 98.861 28.6928L98.167 27.9728L97.473 27.2528C96.0436 28.6307 94.8381 29.1671 93.8398 29.1671V30.1671ZM98.167 27.9728L99.1668 27.9932C99.1944 26.6417 99.208 24.0957 99.208 20.3644H98.208H97.208C97.208 24.098 97.1943 26.6243 97.1672 27.9524L98.167 27.9728ZM98.208 20.3644H99.208V17.3908H98.208H97.208V20.3644H98.208ZM98.208 17.3908L99.0731 16.8892C97.9439 14.9416 96.1647 13.9503 93.8809 13.9503V14.9503V15.9503C95.4799 15.9503 96.5854 16.586 97.3429 17.8924L98.208 17.3908ZM93.8809 14.9503V13.9503C93.3692 13.9503 92.8623 14.0273 92.363 14.1771L92.6504 15.1349L92.9377 16.0927C93.2588 15.9964 93.5722 15.9503 93.8809 15.9503V14.9503ZM92.6504 15.1349L92.363 14.1771C91.7941 14.3478 91.2445 14.6704 90.716 15.0901L91.3379 15.8732L91.9598 16.6563C92.3609 16.3377 92.6863 16.1682 92.9377 16.0927L92.6504 15.1349ZM91.3379 15.8732L90.716 15.0901C90.1493 15.5401 89.6651 16.1029 89.2572 16.7619L90.1074 17.2882L90.9577 17.8146C91.2607 17.3251 91.5968 16.9445 91.9598 16.6563L91.3379 15.8732ZM90.1074 17.2882L89.2481 16.7768C88.8311 17.4774 88.5147 18.3905 88.2708 19.4666L89.2461 19.6877L90.2214 19.9087C90.4423 18.934 90.7002 18.2475 90.9667 17.7997L90.1074 17.2882ZM89.2461 19.6877L88.2715 19.4638C88.0183 20.5659 87.8975 21.8126 87.8975 23.1945H88.8975H89.8975C89.8975 21.924 90.0091 20.8329 90.2207 19.9116L89.2461 19.6877ZM88.8975 23.1945H87.8975C87.8975 25.3516 88.3421 27.2202 89.3044 28.7347L90.1484 28.1984L90.9925 27.6621C90.2868 26.5516 89.8975 25.0842 89.8975 23.1945H88.8975ZM90.1484 28.1984L89.3084 28.7409C90.3474 30.3497 91.9004 31.1671 93.8398 31.1671V30.1671V29.1671C92.5527 29.1671 91.6448 28.6721 90.9885 27.6559L90.1484 28.1984ZM121.648 14.3351L121.243 15.2494L121.248 15.2513L121.648 14.3351ZM126.201 19.38L125.256 19.706L125.257 19.7094L126.201 19.38ZM124.417 30.1671L123.674 29.4982L123.668 29.5042L124.417 30.1671ZM114.348 32.1564L113.943 33.0707L113.95 33.0738L113.957 33.0767L114.348 32.1564ZM111.579 30.1671L110.832 30.8315L110.837 30.8374L111.579 30.1671ZM109.795 27.1115L108.851 27.4409L108.854 27.4506L109.795 27.1115ZM109.795 19.38L110.739 19.7094L110.74 19.706L109.795 19.38ZM111.538 16.3244L110.796 15.6541L110.79 15.6608L111.538 16.3244ZM114.655 16.9806L113.804 16.456L113.8 16.4623L114.655 16.9806ZM114.655 29.4904L113.8 30.0087L113.806 30.0188L114.655 29.4904ZM121.32 29.4699L120.469 28.9453L120.465 28.9516L121.32 29.4699ZM119.885 15.463L119.364 16.3168L119.372 16.3215L119.38 16.3261L119.885 15.463ZM117.998 13.6173V14.6173C119.232 14.6173 120.308 14.8351 121.243 15.2494L121.648 14.3351L122.054 13.4208C120.829 12.8781 119.471 12.6173 117.998 12.6173V13.6173ZM121.648 14.3351L121.248 15.2513C122.217 15.6756 123.029 16.257 123.695 16.9947L124.438 16.3244L125.18 15.6541C124.315 14.6964 123.267 13.9517 122.049 13.419L121.648 14.3351ZM124.438 16.3244L123.695 16.9947C124.362 17.7327 124.885 18.6309 125.256 19.706L126.201 19.38L127.147 19.054C126.697 17.7503 126.044 16.6114 125.18 15.6541L124.438 16.3244ZM126.201 19.38L125.257 19.7094C125.626 20.7674 125.816 21.9398 125.816 23.2355H126.816H127.816C127.816 21.7421 127.597 20.3442 127.145 19.0507L126.201 19.38ZM126.816 23.2355H125.816C125.816 25.8816 125.078 27.9381 123.674 29.4982L124.417 30.1671L125.16 30.8361C126.955 28.8415 127.816 26.2769 127.816 23.2355H126.816ZM124.417 30.1671L123.668 29.5042C122.297 31.0526 120.445 31.8537 117.998 31.8537V32.8537V33.8537C120.938 33.8537 123.365 32.8638 125.166 30.8301L124.417 30.1671ZM117.998 32.8537V31.8537C116.776 31.8537 115.694 31.642 114.739 31.2361L114.348 32.1564L113.957 33.0767C115.189 33.6004 116.541 33.8537 117.998 33.8537V32.8537ZM114.348 32.1564L114.753 31.2421C113.796 30.8184 112.99 30.2369 112.321 29.4969L111.579 30.1671L110.837 30.8374C111.7 31.7927 112.739 32.5374 113.943 33.0707L114.348 32.1564ZM111.579 30.1671L112.327 29.5028C111.652 28.7444 111.12 27.8386 110.736 26.7724L109.795 27.1115L108.854 27.4506C109.317 28.7359 109.975 29.8673 110.832 30.8315L111.579 30.1671ZM109.795 27.1115L110.739 26.7821C110.37 25.7251 110.18 24.5461 110.18 23.2355H109.18H108.18C108.18 24.7414 108.399 26.1463 108.851 27.4409L109.795 27.1115ZM109.18 23.2355H110.18C110.18 21.9398 110.37 20.7674 110.739 19.7094L109.795 19.38L108.851 19.0507C108.399 20.3442 108.18 21.7421 108.18 23.2355H109.18ZM109.795 19.38L110.74 19.706C111.112 18.6273 111.631 17.7269 112.286 16.988L111.538 16.3244L110.79 15.6608C109.942 16.6172 109.298 17.7539 108.85 19.054L109.795 19.38ZM111.538 16.3244L112.28 16.9947C112.946 16.257 113.758 15.6756 114.728 15.2513L114.327 14.3351L113.926 13.419C112.709 13.9517 111.661 14.6964 110.796 15.6541L111.538 16.3244ZM114.327 14.3351L114.728 15.2513C115.679 14.835 116.764 14.6173 117.998 14.6173V13.6173V12.6173C116.525 12.6173 115.162 12.8782 113.926 13.419L114.327 14.3351ZM117.998 14.9503V13.9503C116.203 13.9503 114.79 14.8561 113.804 16.456L114.655 16.9806L115.507 17.5052C116.189 16.3981 117.005 15.9503 117.998 15.9503V14.9503ZM114.655 16.9806L113.8 16.4623C112.837 18.0517 112.425 20.3596 112.425 23.2355H113.425H114.425C114.425 20.4786 114.833 18.6166 115.51 17.4989L114.655 16.9806ZM113.425 23.2355H112.425C112.425 26.1114 112.837 28.4194 113.8 30.0087L114.655 29.4904L115.51 28.9721C114.833 27.8544 114.425 25.9924 114.425 23.2355H113.425ZM114.655 29.4904L113.806 30.0188C114.794 31.6062 116.207 32.5002 117.998 32.5002V31.5002V30.5002C117 30.5002 116.184 30.0543 115.504 28.9619L114.655 29.4904ZM117.998 31.5002V32.5002C119.795 32.5002 121.203 31.5927 122.176 29.9882L121.32 29.4699L120.465 28.9516C119.797 30.0541 118.99 30.5002 117.998 30.5002V31.5002ZM121.32 29.4699L122.172 29.9945C123.152 28.4039 123.571 26.1005 123.571 23.2355H122.571H121.571C121.571 25.976 121.157 27.8288 120.469 28.9453L121.32 29.4699ZM122.571 23.2355H123.571C123.571 21.779 123.458 20.4832 123.222 19.3586L122.243 19.5646L121.265 19.7706C121.465 20.7241 121.571 21.8756 121.571 23.2355H122.571ZM122.243 19.5646L123.222 19.3586C122.988 18.2489 122.65 17.2799 122.185 16.4789L121.32 16.9806L120.455 17.4823C120.784 18.0486 121.061 18.8022 121.265 19.7706L122.243 19.5646ZM121.32 16.9806L122.185 16.4789C121.721 15.678 121.129 15.0325 120.39 14.6L119.885 15.463L119.38 16.3261C119.762 16.5498 120.127 16.916 120.455 17.4823L121.32 16.9806ZM119.885 15.463L120.405 14.6092C119.678 14.1658 118.867 13.9503 117.998 13.9503V14.9503V15.9503C118.524 15.9503 118.97 16.0767 119.364 16.3168L119.885 15.463ZM130.897 15.381L130.795 14.3863L130.097 14.4582L129.927 15.1385L130.897 15.381ZM137.829 13.6994L138.2 12.7709L137.815 12.6167L137.434 12.7809L137.829 13.6994ZM138.547 14.2326H139.547V13.9458L139.395 13.7026L138.547 14.2326ZM138.547 17.7599H137.547L139.431 18.2272L138.547 17.7599ZM140.803 14.9709L140.137 14.2245L140.132 14.2291L140.803 14.9709ZM145.95 14.3556L145.253 15.0723L145.263 15.0819L145.273 15.0912L145.95 14.3556ZM142.546 18.2726L141.828 18.9684L141.839 18.9798L141.85 18.9909L142.546 18.2726ZM141.849 16.55L142.847 16.4924L142.765 15.0693L141.455 15.6308L141.849 16.55ZM139.88 18.1906L139.126 17.5338L139.12 17.5408L139.88 18.1906ZM138.547 20.713L137.566 20.52L137.547 20.6156V20.713H138.547ZM138.711 29.4494L139.71 29.4109L139.71 29.41L138.711 29.4494ZM139.101 30.3722L138.375 31.06L138.384 31.0698L138.393 31.0793L139.101 30.3722ZM141.377 31.2541L141.165 32.2312L141.185 32.2357L141.206 32.2393L141.377 31.2541ZM142.607 31.4181L143.502 30.9709L143.258 30.4826L142.715 30.4239L142.607 31.4181ZM142.607 32.382L142.567 33.3812L143.213 33.407L143.502 32.8292L142.607 32.382ZM131.308 32.382L130.337 32.6245L130.536 33.4181L131.353 33.381L131.308 32.382ZM131.308 31.4181L131.187 30.4254L130.469 30.5125L130.327 31.222L131.308 31.4181ZM132.415 31.2541L132.602 32.2364L132.625 32.2321L132.647 32.2269L132.415 31.2541ZM134.445 30.3722L135.193 31.0366L135.202 31.0266L135.21 31.0164L134.445 30.3722ZM134.794 29.4494L133.795 29.409L133.795 29.4109L134.794 29.4494ZM134.835 17.1857H135.835V16.6263L135.358 16.3335L134.835 17.1857ZM130.897 16.3449L129.927 16.5874L130.108 17.3108L130.853 17.3439L130.897 16.3449ZM130.897 15.381L131 16.3757C133.73 16.0943 136.143 15.514 138.225 14.6179L137.829 13.6994L137.434 12.7809C135.578 13.58 133.37 14.1208 130.795 14.3863L130.897 15.381ZM137.829 13.6994L137.458 14.6278C137.684 14.7182 137.714 14.7862 137.699 14.7626L138.547 14.2326L139.395 13.7026C139.107 13.2415 138.658 12.9539 138.2 12.7709L137.829 13.6994ZM138.547 14.2326H137.547V17.7599H138.547H139.547V14.2326H138.547ZM138.547 17.7599L139.431 18.2272C139.871 17.3951 140.542 16.555 141.473 15.7126L140.803 14.9709L140.132 14.2291C139.068 15.1914 138.235 16.2107 137.663 17.2926L138.547 17.7599ZM140.803 14.9709L141.468 15.7172C142.343 14.9375 143.168 14.6173 143.961 14.6173V13.6173V12.6173C142.567 12.6173 141.286 13.1996 140.137 14.2246L140.803 14.9709ZM143.961 13.6173V14.6173C144.566 14.6173 144.964 14.7912 145.253 15.0723L145.95 14.3556L146.648 13.6389C145.925 12.9356 144.996 12.6173 143.961 12.6173V13.6173ZM145.95 14.3556L145.273 15.0912C145.546 15.3428 145.729 15.716 145.729 16.3449H146.729H147.729C147.729 15.2784 147.394 14.3254 146.628 13.6201L145.95 14.3556ZM146.729 16.3449H145.729C145.729 16.943 145.56 17.2833 145.326 17.504L146.012 18.2316L146.698 18.9592C147.421 18.2776 147.729 17.36 147.729 16.3449H146.729ZM146.012 18.2316L145.326 17.504C145.052 17.7618 144.705 17.9084 144.207 17.9084V18.9084V19.9084C145.158 19.9084 146.014 19.6038 146.698 18.9592L146.012 18.2316ZM144.207 18.9084V17.9084C143.768 17.9084 143.473 17.7787 143.242 17.5544L142.546 18.2726L141.85 18.9909C142.494 19.6142 143.306 19.9084 144.207 19.9084V18.9084ZM142.546 18.2726L143.264 17.5768C143.035 17.34 142.877 17.0066 142.847 16.4924L141.849 16.55L140.85 16.6076C140.903 17.5152 141.209 18.3302 141.828 18.9684L142.546 18.2726ZM141.849 16.55L141.455 15.6308C140.672 15.9662 139.896 16.6495 139.126 17.5338L139.88 18.1906L140.634 18.8474C141.34 18.0364 141.877 17.6259 142.243 17.4691L141.849 16.55ZM139.88 18.1906L139.12 17.5408C138.317 18.4796 137.772 19.4727 137.566 20.52L138.547 20.713L139.528 20.9061C139.65 20.2854 139.993 19.5969 140.64 18.8404L139.88 18.1906ZM138.547 20.713H137.547C137.547 23.7738 137.602 26.699 137.712 29.4888L138.711 29.4494L139.71 29.41C139.601 26.6489 139.547 23.75 139.547 20.713H138.547ZM138.711 29.4494L137.712 29.4878C137.735 30.0873 137.963 30.6252 138.375 31.06L139.101 30.3722L139.827 29.6845C139.746 29.5997 139.714 29.5224 139.71 29.4109L138.711 29.4494ZM139.101 30.3722L138.393 31.0793C138.8 31.4863 139.337 31.7434 139.913 31.908L140.188 30.9464L140.462 29.9849C140.081 29.876 139.893 29.7504 139.808 29.6651L139.101 30.3722ZM140.188 30.9464L139.913 31.908C140.402 32.0478 140.821 32.1566 141.165 32.2312L141.377 31.2541L141.589 30.2769C141.304 30.2148 140.93 30.1186 140.462 29.9849L140.188 30.9464ZM141.377 31.2541L141.206 32.2393C141.55 32.2991 141.984 32.3565 142.5 32.4123L142.607 31.4181L142.715 30.4239C142.219 30.3704 141.833 30.3184 141.548 30.2688L141.377 31.2541ZM142.607 31.4181L141.713 31.8653C141.728 31.8951 141.73 31.9134 141.73 31.9308H142.73H143.73C143.73 31.5928 143.651 31.2692 143.502 30.9709L142.607 31.4181ZM142.73 31.9308H141.73C141.73 31.8989 141.735 31.8818 141.735 31.883C141.735 31.8836 141.733 31.8882 141.73 31.8971C141.727 31.906 141.721 31.9185 141.713 31.9348L142.607 32.382L143.502 32.8292C143.631 32.5715 143.73 32.2665 143.73 31.9308H142.73ZM142.607 32.382L142.647 31.3828C140.584 31.3002 138.54 31.2589 136.517 31.2589V32.2589V33.2589C138.513 33.2589 140.53 33.2997 142.567 33.3812L142.607 32.382ZM136.517 32.2589V31.2589C134.832 31.2589 133.081 31.3004 131.262 31.383L131.308 32.382L131.353 33.381C133.144 33.2996 134.865 33.2589 136.517 33.2589V32.2589ZM131.308 32.382L132.278 32.1395C132.253 32.0423 132.238 31.9727 132.23 31.9262C132.226 31.9034 132.224 31.8914 132.224 31.8883C132.223 31.8832 132.226 31.8997 132.226 31.9308H131.226H130.226C130.226 32.1537 130.286 32.4186 130.337 32.6245L131.308 32.382ZM131.226 31.9308H132.226C132.226 31.9697 132.222 31.9898 132.224 31.9739C132.225 31.9637 132.228 31.9431 132.234 31.9094C132.244 31.8419 132.262 31.7449 132.288 31.6142L131.308 31.4181L130.327 31.222C130.298 31.3648 130.275 31.4899 130.259 31.5934C130.245 31.6757 130.226 31.8076 130.226 31.9308H131.226ZM131.308 31.4181L131.428 32.4109C131.891 32.3548 132.284 32.2969 132.602 32.2364L132.415 31.2541L132.228 30.2717C131.972 30.3206 131.627 30.3721 131.187 30.4254L131.308 31.4181ZM132.415 31.2541L132.647 32.2269C132.968 32.1503 133.351 32.0393 133.788 31.8982L133.481 30.9464L133.174 29.9947C132.764 30.127 132.436 30.2211 132.183 30.2813L132.415 31.2541ZM133.481 30.9464L133.788 31.8982C134.324 31.7253 134.821 31.455 135.193 31.0366L134.445 30.3722L133.698 29.7079C133.632 29.7816 133.486 29.8942 133.174 29.9947L133.481 30.9464ZM134.445 30.3722L135.21 31.0164C135.579 30.5779 135.771 30.0543 135.793 29.4878L134.794 29.4494L133.795 29.4109C133.789 29.5554 133.749 29.647 133.68 29.7281L134.445 30.3722ZM134.794 29.4494L135.793 29.4897C135.849 28.1185 135.876 26.4636 135.876 24.5275H134.876H133.876C133.876 26.4469 133.849 28.0732 133.795 29.409L134.794 29.4494ZM134.876 24.5275H135.876C135.876 23.88 135.869 22.7823 135.855 21.2374L134.855 21.2462L133.856 21.2551C133.869 22.8 133.876 23.8898 133.876 24.5275H134.876ZM134.855 21.2462L135.855 21.2374C135.842 19.6945 135.835 18.3441 135.835 17.1857H134.835H133.835C133.835 18.3515 133.842 19.7081 133.856 21.2551L134.855 21.2462ZM134.835 17.1857L135.358 16.3335C134.349 15.7141 132.817 15.4292 130.942 15.3459L130.897 16.3449L130.853 17.3439C132.669 17.4246 133.762 17.7003 134.312 18.0379L134.835 17.1857ZM130.897 16.3449L131.868 16.1023C131.845 16.0131 131.831 15.9447 131.823 15.8947C131.815 15.8422 131.815 15.8244 131.815 15.8322H130.815H129.815C129.815 16.0784 129.866 16.3434 129.927 16.5874L130.897 16.3449ZM130.815 15.8322H131.815C131.815 15.8633 131.813 15.8798 131.814 15.8747C131.814 15.8716 131.816 15.8596 131.82 15.8368C131.828 15.7903 131.843 15.7207 131.868 15.6235L130.897 15.381L129.927 15.1385C129.876 15.3444 129.815 15.6093 129.815 15.8322H130.815ZM153.333 15.0734L152.758 14.2553L152.754 14.258L153.333 15.0734ZM163.054 14.9914L162.352 15.7037L162.357 15.7088L163.054 14.9914ZM167.032 27.6447L167.115 26.6481L166.514 26.598L166.189 27.1071L167.032 27.6447ZM168.037 28.3009L168.856 28.8744L169.182 28.4096L168.95 27.8919L168.037 28.3009ZM166.52 30.4953L167.311 31.1067L167.317 31.0983L167.324 31.0897L166.52 30.4953ZM165.945 31.172L165.238 30.4649L165.221 30.4817L165.205 30.4994L165.945 31.172ZM165.371 31.7052L164.731 30.937L164.72 30.946L164.709 30.9554L165.371 31.7052ZM164.715 32.1769L165.162 33.0713L165.174 33.0655L165.185 33.0593L164.715 32.1769ZM164.038 32.423L163.784 31.4559L163.76 31.4621L163.737 31.4694L164.038 32.423ZM161.557 31.8078L160.809 32.4721L160.814 32.4779L160.819 32.4835L161.557 31.8078ZM160.777 29.5314L161.774 29.4517L161.601 27.2931L160.07 28.8243L160.777 29.5314ZM159.28 30.9054L159.914 31.6794L159.92 31.6736L159.28 30.9054ZM158.398 31.5822L158.994 32.3853L158.998 32.3822L158.398 31.5822ZM156.184 32.6486L155.92 31.6838L155.907 31.6875L155.894 31.6916L156.184 32.6486ZM152.984 32.5666L152.646 33.5078L152.654 33.5104L152.984 32.5666ZM150.995 30.9259L150.107 31.3862L150.111 31.3932L150.115 31.4L150.995 30.9259ZM150.605 29.9211L149.622 30.0999L149.626 30.1214L149.63 30.1427L150.605 29.9211ZM150.975 26.7013L150.08 26.2541L150.076 26.262L150.072 26.2699L150.975 26.7013ZM152.697 24.9377L152.155 24.0973L152.149 24.1014L152.697 24.9377ZM160.777 22.0461L161.026 23.0147L161.777 22.8219V22.0461H160.777ZM159.854 16.0988L159.104 16.7595L159.111 16.7677L159.854 16.0988ZM155.097 15.6271L155.597 16.493L155.603 16.4895L155.097 15.6271ZM153.969 16.8781L153.007 16.6034L152.695 17.6948L153.817 17.8666L153.969 16.8781ZM152 20.6105L151.325 21.3485L151.331 21.3539L151.337 21.3591L152 20.6105ZM160.777 27.6447L161.572 28.2517L161.777 27.9829V27.6447H160.777ZM160.777 23.3586H161.777V22.1046L160.555 22.3836L160.777 23.3586ZM157.66 24.3019L158.032 25.2304L158.038 25.2277L158.045 25.225L157.66 24.3019ZM155.773 25.3888L155.102 24.6478L155.096 24.6531L155.09 24.6586L155.773 25.3888ZM154.892 26.6193L155.82 26.9907L155.824 26.9803L154.892 26.6193ZM155.24 29.675L154.533 30.3821L154.545 30.3943L154.558 30.406L155.24 29.675ZM151.282 18.7853H152.282C152.282 17.6463 152.774 16.697 153.912 15.8888L153.333 15.0734L152.754 14.258C151.158 15.3912 150.282 16.9165 150.282 18.7853H151.282ZM153.333 15.0734L153.908 15.8915C155.102 15.052 156.523 14.6173 158.214 14.6173V13.6173V12.6173C156.159 12.6173 154.326 13.1533 152.758 14.2553L153.333 15.0734ZM158.214 13.6173V14.6173C160.432 14.6173 161.709 15.0699 162.352 15.7037L163.054 14.9914L163.756 14.279C162.539 13.0808 160.59 12.6173 158.214 12.6173V13.6173ZM163.054 14.9914L162.357 15.7088C163.012 16.3449 163.469 17.5543 163.469 19.6261H164.469H165.469C165.469 17.3503 164.982 15.4699 163.75 14.2739L163.054 14.9914ZM164.469 19.6261H163.469V28.1369H164.469H165.469V19.6261H164.469ZM164.469 28.1369H163.469C163.469 28.6122 163.55 29.1497 163.872 29.5889C164.236 30.0863 164.776 30.2853 165.31 30.2853V29.2853V28.2853C165.282 28.2853 165.306 28.2808 165.356 28.3034C165.411 28.3286 165.457 28.3687 165.486 28.4075C165.51 28.4403 165.504 28.4485 165.493 28.4022C165.481 28.3552 165.469 28.2705 165.469 28.1369H164.469ZM165.31 29.2853V30.2853C165.927 30.2853 166.424 29.9268 166.768 29.5993C167.139 29.2462 167.507 28.76 167.875 28.1822L167.032 27.6447L166.189 27.1071C165.86 27.6231 165.592 27.9572 165.389 28.151C165.159 28.3704 165.143 28.2853 165.31 28.2853V29.2853ZM167.032 27.6447L166.949 28.6412C167.009 28.6462 167.048 28.6553 167.072 28.6628C167.096 28.6701 167.105 28.6761 167.106 28.6768C167.106 28.6771 167.106 28.6764 167.106 28.6771C167.107 28.6782 167.114 28.6871 167.125 28.71L168.037 28.3009L168.95 27.8919C168.6 27.1116 167.91 26.7144 167.115 26.6481L167.032 27.6447ZM168.037 28.3009L167.218 27.7275C167.112 27.8787 166.94 28.137 166.708 28.492L167.545 29.0392L168.382 29.5865C168.615 29.2304 168.771 28.9966 168.856 28.8744L168.037 28.3009ZM167.545 29.0392L166.708 28.492C166.476 28.8465 166.317 29.0813 166.223 29.2098L167.032 29.798L167.841 30.3862C167.966 30.2139 168.149 29.9428 168.382 29.5865L167.545 29.0392ZM167.032 29.798L166.223 29.2098C166.117 29.3569 165.948 29.5868 165.715 29.9009L166.52 30.4953L167.324 31.0897C167.556 30.7749 167.729 30.5399 167.841 30.3862L167.032 29.798ZM166.52 30.4953L165.728 29.8838C165.505 30.1727 165.344 30.3592 165.238 30.4649L165.945 31.172L166.652 31.8791C166.848 31.6841 167.069 31.4194 167.311 31.1067L166.52 30.4953ZM165.945 31.172L165.205 30.4994C165.112 30.602 164.959 30.7467 164.731 30.937L165.371 31.7052L166.011 32.4735C166.275 32.2536 166.505 32.0428 166.685 31.8447L165.945 31.172ZM165.371 31.7052L164.709 30.9554C164.517 31.1249 164.362 31.2316 164.244 31.2946L164.715 32.1769L165.185 33.0593C165.478 32.9035 165.76 32.6957 166.033 32.4551L165.371 31.7052ZM164.715 32.1769L164.268 31.2825C164.151 31.3408 163.993 31.4009 163.784 31.4559L164.038 32.423L164.293 33.3901C164.603 33.3084 164.896 33.2044 165.162 33.0713L164.715 32.1769ZM164.038 32.423L163.737 31.4694C163.57 31.5222 163.412 31.5461 163.259 31.5461V32.5461V33.5461C163.626 33.5461 163.987 33.4879 164.339 33.3766L164.038 32.423ZM163.259 32.5461V31.5461C162.848 31.5461 162.55 31.4121 162.294 31.132L161.557 31.8078L160.819 32.4835C161.465 33.1878 162.302 33.5461 163.259 33.5461V32.5461ZM161.557 31.8078L162.304 31.1434C162.072 30.8824 161.848 30.3743 161.774 29.4517L160.777 29.5314L159.781 29.6111C159.871 30.7393 160.166 31.7487 160.809 32.4721L161.557 31.8078ZM160.777 29.5314L160.07 28.8243C160.079 28.8155 160.043 28.8494 159.925 28.9601C159.819 29.0588 159.664 29.2037 159.459 29.3951L160.142 30.1261L160.824 30.8572C161.219 30.488 161.455 30.2684 161.484 30.2385L160.777 29.5314ZM160.142 30.1261L159.459 29.3951C159.048 29.7792 158.78 30.0208 158.64 30.1372L159.28 30.9054L159.92 31.6736C160.109 31.5166 160.415 31.2387 160.824 30.8572L160.142 30.1261ZM159.28 30.9054L158.647 30.1315C158.515 30.2391 158.238 30.4526 157.798 30.7822L158.398 31.5822L158.998 32.3822C159.434 32.0556 159.744 31.8178 159.914 31.6794L159.28 30.9054ZM158.398 31.5822L157.803 30.7791C157.406 31.0732 157.108 31.2531 156.898 31.3486L157.312 32.2589L157.725 33.1693C158.117 32.9914 158.543 32.7201 158.994 32.3853L158.398 31.5822ZM157.312 32.2589L156.898 31.3486C156.661 31.4562 156.339 31.5696 155.92 31.6838L156.184 32.6486L156.447 33.6134C156.93 33.4815 157.36 33.3352 157.725 33.1693L157.312 32.2589ZM156.184 32.6486L155.894 31.6916C155.529 31.802 155.183 31.8537 154.851 31.8537V32.8537V33.8537C155.394 33.8537 155.936 33.7686 156.474 33.6056L156.184 32.6486ZM154.851 32.8537V31.8537C154.244 31.8537 153.736 31.7703 153.315 31.6227L152.984 32.5666L152.654 33.5104C153.326 33.7457 154.063 33.8537 154.851 33.8537V32.8537ZM152.984 32.5666L153.322 31.6254C152.867 31.4621 152.579 31.2869 152.406 31.1294L151.733 31.8693L151.061 32.6092C151.489 32.9986 152.035 33.2882 152.647 33.5078L152.984 32.5666ZM151.733 31.8693L152.406 31.1294C152.189 30.9316 152.013 30.7069 151.876 30.4518L150.995 30.9259L150.115 31.4C150.36 31.8559 150.677 32.2601 151.061 32.6092L151.733 31.8693ZM150.995 30.9259L151.883 30.4656C151.718 30.1477 151.625 29.8942 151.581 29.6994L150.605 29.9211L149.63 30.1427C149.723 30.5495 149.889 30.9659 150.107 31.3862L150.995 30.9259ZM150.605 29.9211L151.589 29.7422C151.545 29.4994 151.523 29.2585 151.523 29.0187H150.523H149.523C149.523 29.3805 149.556 29.7411 149.622 30.0999L150.605 29.9211ZM150.523 29.0187H151.523C151.523 28.2071 151.657 27.5916 151.877 27.1328L150.975 26.7013L150.072 26.2699C149.69 27.0689 149.523 27.9983 149.523 29.0187H150.523ZM150.975 26.7013L151.869 27.1485C152.078 26.7302 152.501 26.2623 153.246 25.7739L152.697 24.9377L152.149 24.1014C151.226 24.7068 150.5 25.4147 150.08 26.2541L150.975 26.7013ZM152.697 24.9377L153.239 25.778C154.003 25.2852 154.965 24.8318 156.14 24.4271L155.814 23.4816L155.489 22.5361C154.203 22.979 153.087 23.4964 152.155 24.0974L152.697 24.9377ZM155.814 23.4816L156.14 24.4271C157.334 24.0158 158.959 23.5449 161.026 23.0147L160.777 22.0461L160.529 21.0774C158.439 21.6136 156.756 22.0998 155.489 22.5361L155.814 23.4816ZM160.777 22.0461H161.777V19.1955H160.777H159.777V22.0461H160.777ZM160.777 19.1955H161.777C161.777 17.6881 161.444 16.3703 160.598 15.4298L159.854 16.0988L159.111 16.7677C159.495 17.1945 159.777 17.9411 159.777 19.1955H160.777ZM159.854 16.0988L160.605 15.4382C159.789 14.5103 158.686 14.0734 157.414 14.0734V15.0734V16.0734C158.192 16.0734 158.717 16.3201 159.104 16.7594L159.854 16.0988ZM157.414 15.0734V14.0734C156.365 14.0734 155.408 14.2851 154.59 14.7647L155.097 15.6271L155.603 16.4895C156.044 16.2308 156.631 16.0734 157.414 16.0734V15.0734ZM155.097 15.6271L154.596 14.7612C153.853 15.1908 153.241 15.7858 153.007 16.6034L153.969 16.8781L154.93 17.1528C154.97 17.0133 155.11 16.7743 155.597 16.493L155.097 15.6271ZM153.969 16.8781L153.817 17.8666C154.344 17.9472 154.606 18.1107 154.739 18.2559C154.863 18.3916 154.979 18.624 154.979 19.0724H155.979H156.979C156.979 18.263 156.759 17.5007 156.214 16.9051C155.677 16.3188 154.933 16.0141 154.12 15.8896L153.969 16.8781ZM155.979 19.0724H154.979C154.979 19.3804 154.879 19.6448 154.634 19.9061L155.363 20.59L156.093 21.2739C156.668 20.6602 156.979 19.9129 156.979 19.0724H155.979ZM155.363 20.59L154.634 19.9061C154.455 20.0968 154.171 20.2462 153.641 20.2462V21.2462V22.2462C154.587 22.2462 155.451 21.9581 156.093 21.2739L155.363 20.59ZM153.641 21.2462V20.2462C153.28 20.2462 152.966 20.1307 152.663 19.8619L152 20.6105L151.337 21.3591C151.991 21.938 152.771 22.2462 153.641 22.2462V21.2462ZM152 20.6105L152.675 19.8725C152.445 19.6623 152.282 19.3454 152.282 18.7853H151.282H150.282C150.282 19.7838 150.598 20.6837 151.325 21.3485L152 20.6105ZM160.777 27.6447H161.777V23.3586H160.777H159.777V27.6447H160.777ZM160.777 23.3586L160.555 22.3836C159.264 22.6783 158.166 23.0078 157.276 23.3788L157.66 24.3019L158.045 25.225C158.795 24.9124 159.775 24.6131 161 24.3335L160.777 23.3586ZM157.66 24.3019L157.289 23.3734C156.407 23.726 155.66 24.1422 155.102 24.6478L155.773 25.3888L156.445 26.1298C156.762 25.8424 157.272 25.5341 158.032 25.2304L157.66 24.3019ZM155.773 25.3888L155.09 24.6586C154.586 25.1303 154.19 25.6609 153.959 26.2583L154.892 26.6193L155.824 26.9803C155.921 26.73 156.113 26.4404 156.457 26.1191L155.773 25.3888ZM154.892 26.6193L153.963 26.2479C153.742 26.8006 153.646 27.41 153.646 28.0548H154.646H155.646C155.646 27.6059 155.713 27.2583 155.82 26.9907L154.892 26.6193ZM154.646 28.0548H153.646C153.646 28.9418 153.909 29.7584 154.533 30.3821L155.24 29.675L155.947 28.9678C155.778 28.7986 155.646 28.5351 155.646 28.0548H154.646ZM155.24 29.675L154.558 30.406C155.163 30.9706 155.909 31.2492 156.737 31.2492V30.2492V29.2492C156.389 29.2492 156.138 29.145 155.923 28.9439L155.24 29.675ZM156.737 30.2492V31.2492C158.565 31.2492 160.171 30.0866 161.572 28.2517L160.777 27.6447L159.983 27.0377C158.732 28.6754 157.644 29.2492 156.737 29.2492V30.2492Z" fill="#CCA662" mask="url(#path-1-outside-1_14_2656)"/>
</g>
<defs>
<filter id="filter0_d_14_2656" x="0" y="0" width="173.182" height="41.8537" filterUnits="userSpaceOnUse" color-interpolation-filters="sRGB">
<feFlood flood-opacity="0" result="BackgroundImageFix"/>
<feColorMatrix in="SourceAlpha" type="matrix" values="0 0 0 0 0 0 0 0 0 0 0 0 0 0 0 0 0 0 127 0" result="hardAlpha"/>
<feOffset dy="4"/>
<feGaussianBlur stdDeviation="2"/>
<feComposite in2="hardAlpha" operator="out"/>
<feColorMatrix type="matrix" values="0 0 0 0 0 0 0 0 0 0 0 0 0 0 0 0 0 0 0.3 0"/>
<feBlend mode="normal" in2="BackgroundImageFix" result="effect1_dropShadow_14_2656"/>
<feBlend mode="normal" in="SourceGraphic" in2="effect1_dropShadow_14_2656" result="shape"/>
</filter>
</defs>
</svg>
