<svg fill="#C84444" height="64px" width="64px" version="1.1" id="Layer_1" xmlns="http://www.w3.org/2000/svg" xmlns:xlink="http://www.w3.org/1999/xlink" viewBox="0 0 512 512" xml:space="preserve"><g id="SVGRepo_bgCarrier" stroke-width="0"></g><g id="SVGRepo_tracerCarrier" stroke-linecap="round" stroke-linejoin="round"></g><g id="SVGRepo_iconCarrier"> <g> <g> <path d="M497.281,270.122c-22.861-27.633-57.402-45.269-95.983-45.269c-59.162,0-108.818,41.469-121.437,96.865h-47.721 c-12.619-55.396-62.274-96.865-121.437-96.865c-38.581,0-73.122,17.636-95.983,45.269C5.146,296.496,0,323.093,0,348.242v13.901 l256,105.411l256-105.411v-13.901C512,323.094,506.854,296.496,497.281,270.122z M152.216,321.718 c-11.463,0-20.757-9.292-20.757-20.757s9.293-20.757,20.757-20.757c11.463,0,20.757,9.292,20.757,20.757 S163.68,321.718,152.216,321.718z M256,390.907c0,0-27.676-13.838-27.676-27.676c0-7.643,6.195-13.838,13.838-13.838H256h13.838 c7.643,0,13.838,6.195,13.838,13.838C283.676,377.069,256,390.907,256,390.907z M359.784,321.718 c-11.463,0-20.757-9.292-20.757-20.757s9.294-20.757,20.757-20.757s20.757,9.292,20.757,20.757S371.247,321.718,359.784,321.718z"></path> </g> </g> <g> <g> <path d="M471.506,110.334c-4.739-28.113-13.077-50.284-13.43-51.214l-5.564-14.675l-15.638,1.356 c-0.988,0.086-24.503,2.192-51.818,10.261c-27.557,8.141-49.142,19.325-64.551,33.351c-21.331-7.222-43.049-11.008-64.504-11.008 c-21.454,0-43.173,3.786-64.504,11.008c-15.41-14.026-36.994-25.21-64.551-33.351c-27.316-8.069-50.831-10.176-51.819-10.261 L59.49,44.445L53.926,59.12c-0.353,0.93-8.69,23.099-13.43,51.214c-5.909,35.068-3.747,63.834,6.331,85.79 c19.675-8.231,41.255-12.785,63.878-12.785c62.446,0,116.946,34.658,145.294,85.743c28.348-51.085,82.849-85.743,145.297-85.743 c22.625,0,44.204,4.554,63.878,12.785C475.254,174.168,477.417,145.402,471.506,110.334z"></path> </g> </g> </g></svg>