<svg width="64px" height="64px" viewBox="-10.88 0 301.541 301.541" xmlns="http://www.w3.org/2000/svg" fill="#000000"><g id="SVGRepo_bgCarrier" stroke-width="0"></g><g id="SVGRepo_tracerCarrier" stroke-linecap="round" stroke-linejoin="round"></g><g id="SVGRepo_iconCarrier"><defs><style>.a{fill:#ffffff;}.b{fill:#211715;}.c{fill:#957f6e;}.d{fill:#79c6e0;}</style></defs><path class="a" d="M201.773,232.278c-1.29-.44-22.43-10.33-22.87-10.49-6.68-2.41-6.42-6.71-7.26-11.51a93.079,93.079,0,0,1-1.341-10.943c17.36-7.368,31.34-30.751,33.773-37.357.366-1.109,1.109-3.2,1.772-5.673.89-.157,1.392-.234,1.392-.234a17.406,17.406,0,0,0,8.1-3.65,26.25,26.25,0,0,0,6.79-8.912,41.315,41.315,0,0,0,4.213-21.9,13.777,13.777,0,0,0-1.444-5.546,9.749,9.749,0,0,0-7.011-4.661,10.325,10.325,0,0,0-8.263,2.417S215.541,56.53,138.8,56.53c-72.164,0-67.775,57.288-67.775,57.288a10.328,10.328,0,0,0-8.263-2.417,9.751,9.751,0,0,0-7.012,4.661,13.792,13.792,0,0,0-1.443,5.546,41.315,41.315,0,0,0,4.213,21.9,26.237,26.237,0,0,0,6.79,8.912,17.4,17.4,0,0,0,8.1,3.65s1,.153,2.639.4a70.238,70.238,0,0,0,13.391,26.141c6.031,7.218,12.764,12.754,20.086,16.241a90.9,90.9,0,0,1-1.368,11.419c-.843,4.807-.579,9.1-7.262,11.517-.442.159-21.58,10.046-22.867,10.485,0,0,11.206,36.828,61.428,36.828S201.773,232.278,201.773,232.278Z"></path><path class="a" d="M133.569,298.536H110.776c0-11.324.012-30.233.109-41.73a73.406,73.406,0,0,0,57.991-1.921c.115,11.078.115,31.555.115,43.651Z"></path><path class="b" d="M110.138,259.505a76.759,76.759,0,0,0,47.361,2.5,79.974,79.974,0,0,0,12.79-4.7,2.822,2.822,0,0,0,1.005-3.83,2.865,2.865,0,0,0-3.831-1,71.688,71.688,0,0,1-55.836,1.638,2.821,2.821,0,0,0-3.444,1.955,2.863,2.863,0,0,0,1.955,3.445Z"></path><path class="c" d="M220.516,68.24c-.261-1.524-.528-2.934-.787-4.2C212.547,28.821,177.076.867,139.879,2.909c-37.2-2.042-72.668,25.912-79.85,61.129-1.946,9.5-1.713,25.749.056,33.332l3.561,13.949a10.255,10.255,0,0,1,7.375,2.5c14.7-10.2,39.638-27.913,52.55-39.016-1.062,6.591-4.836,17.8-.082,16.648,19.849-4.6,38.872-13.864,50.375-28.325,2.424,8.538,6.431,20.072,9.375,25.113,4.165,7.133,16.235,23.181,26.381,25.58a10.325,10.325,0,0,1,8.263-2.417,9.848,9.848,0,0,1,1.288.281C224.34,99.71,222.6,80.377,220.516,68.24Z"></path><path class="b" d="M62.746,96.927a63.5,63.5,0,0,1-1.259-12.554,111.253,111.253,0,0,1,.551-15.129,62.636,62.636,0,0,1,3.1-13.211,68.734,68.734,0,0,1,5.917-12.6A78.952,78.952,0,0,1,114.819,8.909a71.905,71.905,0,0,1,14.086-2.946c4.9-.492,9.853-.356,14.771-.359a72.285,72.285,0,0,1,27.937,5.727,78.641,78.641,0,0,1,40.528,38.587c3.665,7.83,5.551,16.841,6.59,25.187,1.205,9.673,1.842,19.986-.26,29.474a36.614,36.614,0,0,1-1.949,6.241c-.585,1.4.63,3.08,1.955,3.444a2.873,2.873,0,0,0,3.445-1.956A48.073,48.073,0,0,0,225.1,97.6a99.715,99.715,0,0,0-.072-15.6c-.7-9.32-1.99-18.934-5.117-27.78-6.8-19.229-21.4-35.324-39.367-44.816A80.978,80.978,0,0,0,151.031.381a71.022,71.022,0,0,0-7.716-.376c-2.594.015-5.181-.018-7.774,0a76.543,76.543,0,0,0-15.32,1.7C100.152,5.961,82.077,18.2,70.075,34.748A74.739,74.739,0,0,0,57.623,61.926a80.157,80.157,0,0,0-1.716,15.117,109.984,109.984,0,0,0,.471,15.131,53.266,53.266,0,0,0,.968,6.242c.8,3.511,6.2,2.025,5.4-1.489Z"></path><path class="b" d="M171.458,64.905c1.448,4.955,3.059,9.867,4.891,14.694A64.629,64.629,0,0,0,181.5,90.775a83.425,83.425,0,0,0,15.548,18.761c3.422,3,7.338,5.872,11.829,6.982,3.5.865,4.991-4.534,1.489-5.4a13.35,13.35,0,0,1-4.215-1.77,30.538,30.538,0,0,1-4.5-3.219,70.5,70.5,0,0,1-8.682-8.978,84.783,84.783,0,0,1-6.252-8.6,53.384,53.384,0,0,1-4.542-9.347c-2.015-5.175-3.756-10.462-5.313-15.791-1.008-3.452-6.414-1.984-5.4,1.488Z"></path><path class="b" d="M172.084,60.893c-6.632,8.378-15.394,14.645-24.923,19.347a105.519,105.519,0,0,1-15.65,6.152q-3.943,1.215-7.963,2.17c-.33.078-.659.161-.992.228.635-.128.442-.071.235-.058.43-.027.372-.032.735.2.552.358.423.351.255.193.5.469.309.331.124.094.221.283.25.5.118.214-.077-.166-.1-.774-.033.016-.017-.21-.035-.418-.041-.629a22.613,22.613,0,0,1,.816-5.986c.51-2.428,1.1-4.842,1.506-7.291a2.826,2.826,0,0,0-4.68-2.724c-12.976,11.138-27.076,21.036-41.025,30.9Q75.1,107.588,69.608,111.4a2.874,2.874,0,0,0-1.005,3.831,2.826,2.826,0,0,0,3.831,1c14.534-10.084,28.975-20.342,42.941-31.2,3.447-2.681,6.862-5.407,10.176-8.252l-4.68-2.724c-.771,4.675-2.37,9.313-2.519,14.074-.057,1.834.237,3.842,1.669,5.131,2.2,1.979,5.349.646,7.819,0,11.911-3.12,23.645-7.915,33.752-15.023a68.543,68.543,0,0,0,14.452-13.385,2.89,2.89,0,0,0,0-3.96c-.974-.974-3.017-1.192-3.96,0Z"></path><path class="b" d="M211.6,115.8a7.472,7.472,0,0,1,8.493-.7c3.321,1.944,3.538,5.89,3.589,9.371.116,7.816-2.129,16.344-6.992,22.586a16.265,16.265,0,0,1-10.2,6.314,2.821,2.821,0,0,0-1.955,3.444,2.866,2.866,0,0,0,3.444,1.956c10.235-1.716,16.348-11.319,19.262-20.5a43.5,43.5,0,0,0,2.006-14.9c-.223-5.232-1.531-10.284-6.332-13.1a13.222,13.222,0,0,0-15.279,1.573,2.825,2.825,0,0,0,0,3.96,2.856,2.856,0,0,0,3.96,0Z"></path><path class="b" d="M204.332,148.382a35.125,35.125,0,0,1-1.712,9.026c-.329,1.091-.69,2.171-1.052,3.251-.089.266-.176.532-.276.8-.044.117-.1.232-.139.351-.16.471.309-.683.04-.095a73.581,73.581,0,0,1-4.684,8.543c-4.995,7.924-10.93,15.306-18.456,21.192a35.174,35.174,0,0,1-13.588,6.842c-3.512.8-2.026,6.2,1.488,5.4,10.291-2.348,18.907-9.8,25.684-17.559a88.96,88.96,0,0,0,14.176-21.109,44.6,44.6,0,0,0,4.119-16.637c.11-3.605-5.49-3.6-5.6,0Z"></path><path class="b" d="M73,111.838a13.176,13.176,0,0,0-13.587-2.38,12.631,12.631,0,0,0-5.6,4.422,15.378,15.378,0,0,0-2.293,7.509c-.95,9.734,1.7,20.609,7.59,28.495,3.328,4.457,7.956,7.95,13.543,8.887a2.885,2.885,0,0,0,3.444-1.956,2.822,2.822,0,0,0-1.956-3.444c-7.842-1.315-12.451-8.305-14.927-15.325a38.868,38.868,0,0,1-2.248-11.811c-.1-3.43-.275-8.044,2.611-10.468a7.474,7.474,0,0,1,9.459.031,2.87,2.87,0,0,0,3.96,0,2.825,2.825,0,0,0,0-3.96Z"></path><path class="b" d="M71.118,147.308a82.8,82.8,0,0,0,10.51,29.2c6.018,9.833,14.755,18.72,25.049,24.052a47.769,47.769,0,0,0,17.212,5.135,2.818,2.818,0,0,0,2.8-2.8,2.863,2.863,0,0,0-2.8-2.8c-9.742-1-18.683-5.9-25.845-12.476a66.33,66.33,0,0,1-17.8-27.11,92.355,92.355,0,0,1-3.73-14.692,2.823,2.823,0,0,0-3.445-1.956,2.863,2.863,0,0,0-1.955,3.444Z"></path><path class="b" d="M106.708,199.064a85.52,85.52,0,0,1-1.025,9.1c-.333,2.005-.554,4.06-1.025,6.037-.1.427-.225.845-.364,1.26-.262.786.251-.453-.111.291-.076.156-.155.311-.24.463a7.4,7.4,0,0,1-.421.671c.071-.1.3-.347-.068.074a6.443,6.443,0,0,1-1,.935,20.8,20.8,0,0,1-3.481,1.7c-5.3,2.405-10.567,4.9-15.858,7.335q-2.124.976-4.252,1.943-.712.321-1.427.637c-.248.11-.981.45.108-.041-.088.04-.179.074-.269.106a2.871,2.871,0,0,0-1.956,3.444,2.825,2.825,0,0,0,3.444,1.956c2.06-.73,4.049-1.773,6.032-2.683q4.868-2.233,9.724-4.493c2.387-1.106,4.769-2.223,7.162-3.315.365-.166,1.024-.655-.063.01,1.154-.705,2.521-.981,3.662-1.765a11.343,11.343,0,0,0,4.324-5.536,36.441,36.441,0,0,0,1.323-6.634,103.546,103.546,0,0,0,1.379-11.5,2.8,2.8,0,0,0-5.6,0Z"></path><path class="b" d="M167.5,199.338a100.6,100.6,0,0,0,1.205,10.3c.345,2.094.56,4.256,1.089,6.314a11.33,11.33,0,0,0,3.293,5.68,12.882,12.882,0,0,0,3.27,2.125,15.54,15.54,0,0,1,1.811.741c-.832-.524-.734-.321-.414-.17,5.335,2.539,10.724,4.974,16.091,7.444,2.36,1.086,4.727,2.342,7.18,3.211a2.828,2.828,0,0,0,3.445-1.956,2.856,2.856,0,0,0-1.956-3.444c-.681-.241.66.3.024.016-.418-.186-.837-.369-1.255-.557-1.157-.52-2.311-1.049-3.465-1.578q-4.644-2.131-9.277-4.287c-2.412-1.119-4.821-2.243-7.237-3.353-.7-.322-1.409-.606-2.12-.9a7.839,7.839,0,0,1-2.46-1.546c-.167-.165-.327-.336-.478-.516-.318-.38.307.51-.128-.189-.116-.187-.23-.372-.334-.566-.057-.1-.4-.91-.2-.394a32.6,32.6,0,0,1-1.243-6.171,95.72,95.72,0,0,1-1.24-10.2,2.864,2.864,0,0,0-2.8-2.8,2.825,2.825,0,0,0-2.8,2.8Z"></path><path class="d" d="M277.028,298.761c-2.547-5.272-4.715-10.731-7.642-15.817-2.592-4.5-7.367-15.3-17.094-23.923-5.153-4.569-17.815-13.829-37.114-22.816-4.419-2.058-9.547-4.534-14.563-6.773-1.934,5.67-7.182,10.586-12.9,13.26-5.244,2.466-11.016,3.691-16.788,4.775a2.517,2.517,0,0,0-2.132,2.483c.189,8.448.189,34.332.189,48.586"></path><path class="d" d="M110.776,298.536c0-14.2.018-40.33.207-48.83a2.548,2.548,0,0,0-2.132-2.5c-5.772-1.067-11.544-2.292-16.788-4.758-5.637-2.638-10.822-7.46-12.821-13.05-5.033,2.247-10.193,4.739-14.637,6.808-19.3,8.987-31.961,18.247-37.113,22.816-9.728,8.625-14.5,19.422-17.095,23.923-2.927,5.086-5.1,10.545-7.642,15.817"></path><path class="b" d="M197.962,228.566c-1.855,5.348-6.672,9.355-11.654,11.709a49.05,49.05,0,0,1-9.805,3.189c-1.645.385-3.3.723-4.959,1.042-1.762.34-3.317.761-4.459,2.261a6.271,6.271,0,0,0-1.064,4.215c.03,1.576.048,3.153.063,4.73q.034,3.645.051,7.29.043,8.619.048,17.237.012,9.149.008,18.3c0,3.6,5.6,3.609,5.6,0q0-16.7-.046-33.409-.017-3.682-.043-7.363-.013-1.684-.031-3.367-.013-1.222-.033-2.445-.007-.486-.017-.97c0-.163.012-1.127-.046-.927-.085.3-.534.137.1.109a18.822,18.822,0,0,0,2.715-.524c1.655-.332,3.305-.689,4.942-1.1a51.982,51.982,0,0,0,10.154-3.6c6.2-3.029,11.589-8.294,13.876-14.887a2.8,2.8,0,1,0-5.4-1.489Z"></path><path class="b" d="M76.422,229.8c2.235,6.478,7.469,11.679,13.526,14.729a51.41,51.41,0,0,0,10.907,3.868c1.649.405,3.31.755,4.975,1.081a15.6,15.6,0,0,0,2.612.518c-.352,0-.192-.54-.266.048a48.59,48.59,0,0,0-.076,5.466q-.036,3.687-.054,7.374-.047,8.625-.056,17.25-.016,9.2-.014,18.407c0,3.6,5.6,3.61,5.6,0q0-17.007.062-34.016c.022-4.525.042-9.05.121-13.575a7.4,7.4,0,0,0-.534-3.592,5.854,5.854,0,0,0-4.54-3.018,84.76,84.76,0,0,1-11.2-2.732c-6.534-2.183-13.3-6.461-15.659-13.3a2.867,2.867,0,0,0-3.444-1.955,2.827,2.827,0,0,0-1.956,3.444Z"></path><path class="b" d="M89.007,222.428c-8.379,2.941-16.369,6.931-24.4,10.7a218.7,218.7,0,0,0-23.8,12.786A126.1,126.1,0,0,0,26.487,256.2a67.412,67.412,0,0,0-14.525,18.06c-1.531,2.664-2.945,5.395-4.438,8.08-2.7,4.853-4.783,10.012-7.187,15.01a2.875,2.875,0,0,0,1.005,3.831,2.824,2.824,0,0,0,3.831-1c2.07-4.3,3.9-8.726,6.094-12.971,1.349-2.611,2.8-5.182,4.212-7.762,3.658-6.7,7.963-13,13.663-18.145.765-.69,1.552-1.356,2.351-2.007q.627-.512,1.266-1.01.18-.142.362-.283c-.084.065-.428.328,0,0,.263-.2.525-.4.789-.6,2.449-1.837,4.969-3.579,7.533-5.25A196.1,196.1,0,0,1,63.8,239.669c8.747-4.191,17.528-8.625,26.692-11.841a2.869,2.869,0,0,0,1.955-3.444,2.825,2.825,0,0,0-3.444-1.956Z"></path><path class="b" d="M189.288,227.828c8.048,2.825,15.7,6.688,23.417,10.3A214.5,214.5,0,0,1,236,250.65c2.78,1.748,5.513,3.572,8.174,5.5q.807.582,1.6,1.179c.233.174.465.351.7.526l.384.294c-.449-.344-.012-.008.08.063.834.657,1.662,1.321,2.472,2.009a63.235,63.235,0,0,1,13.735,17.139c1.547,2.71,3.007,5.476,4.506,8.213,2.593,4.734,4.625,9.745,6.963,14.6a2.824,2.824,0,0,0,3.83,1,2.86,2.86,0,0,0,1.005-3.831c-6.785-14.108-13.07-29.481-25.01-40.158a108.749,108.749,0,0,0-13.127-9.781,196.163,196.163,0,0,0-22.942-12.784c-9.049-4.312-18.119-8.872-27.591-12.2a2.8,2.8,0,1,0-1.488,5.4Z"></path><path class="b" d="M128.438,169a27.006,27.006,0,0,0,13,3c4.591-.03,9.3-.9,12.99-3.775,1.194-.931.976-2.984,0-3.96a2.871,2.871,0,0,0-3.96,0c.807-.629.036-.048-.17.085q-.4.257-.825.477c-.164.086-1.08.493-.461.242q-.561.228-1.138.414a20.933,20.933,0,0,1-6.865.917,21.812,21.812,0,0,1-6.553-.883c-.417-.124-.823-.272-1.234-.414-.134-.047-.265-.106-.4-.155.682.253.077.034-.051-.026-.511-.239-1.013-.491-1.512-.754a2.861,2.861,0,0,0-3.831,1,2.831,2.831,0,0,0,1,3.831Z"></path><path class="b" d="M140.321,137.977a62.645,62.645,0,0,1,1.473,6.739l-.1-.744a4.077,4.077,0,0,1,.025.93l.1-.744a2.218,2.218,0,0,1-.1.418l.282-.669a1.72,1.72,0,0,1-.147.27l.437-.567a1.411,1.411,0,0,1-.22.217l.567-.438a4.466,4.466,0,0,1-.534.283l.669-.283a3.872,3.872,0,0,1-.9.263l.745-.1a3.619,3.619,0,0,1-.845,0l.744.1c-.318-.044-.631-.122-.949-.164a3.091,3.091,0,0,0-2.158.282,2.8,2.8,0,0,0-1,3.831,2.68,2.68,0,0,0,1.673,1.287c.667.089,1.314.261,1.991.291a6.251,6.251,0,0,0,2.861-.67,3.986,3.986,0,0,0,2.251-2.644,6.888,6.888,0,0,0-.032-2.922c-.367-2.171-.869-4.323-1.427-6.453a2.8,2.8,0,1,0-5.4,1.489Z"></path><path class="b" d="M104.053,119.065c-1.126,3.657-.392,12.071,6.537,12.787,9.158-.055,9.645-10.227,6.562-15.01C114.628,112.926,107.206,111.3,104.053,119.065Z"></path><path class="b" d="M177.391,119.065c1.126,3.658.392,12.071-6.537,12.787-9.158-.055-9.646-10.228-6.563-15.01C166.815,112.926,174.237,111.3,177.391,119.065Z"></path><path class="b" d="M165.592,160.863l.121.155-.438-.566a22.788,22.788,0,0,1,3.016,4.94l-.283-.669c.106.256.2.514.293.776a2.97,2.97,0,0,0,1.287,1.673,2.8,2.8,0,0,0,3.831-1,2.808,2.808,0,0,0,.282-2.158,24.429,24.429,0,0,0-4.149-7.107,2.8,2.8,0,0,0-1.98-.82,2.85,2.85,0,0,0-1.98.82,2.814,2.814,0,0,0-.82,1.98l.1.744a2.793,2.793,0,0,0,.72,1.236Z"></path></g></svg>